<svg width="3328" height="1029" viewBox="0 0 3328 1029" fill="none" xmlns="http://www.w3.org/2000/svg">
<path fill-rule="evenodd" clip-rule="evenodd" d="M3296.42 29.9943C3290.22 36.0049 3270.35 55.2095 3252.25 72.6837C3234.14 90.158 3220.03 104.456 3220.89 104.456C3221.74 104.456 3228.44 98.5706 3235.78 91.3646C3311.8 16.7548 3310.11 18.1209 3311.83 29.5731C3312.55 34.3315 3313.52 37.8378 3313.99 37.3596C3315.79 35.5724 3312.14 19.0771 3309.95 19.0771C3308.69 19.0771 3302.6 23.995 3296.42 29.9943ZM2530.98 59.1028C2511.27 77.8179 2386.45 200.297 2366.27 220.719C2279.5 308.557 2159.84 426.597 2155.47 428.691C2140.1 436.034 2140.36 438.88 2140.23 269.306C2140.14 151.676 2139.59 118.561 2137.75 117.4C2136.45 116.569 2100.62 115.885 2058.12 115.874L1980.83 115.84L1979.81 120.109C1977.49 129.683 1979.75 814.661 1982.09 815.446C1984.72 816.323 1992.04 809.185 2144.02 657.78C2206.15 595.886 2259.26 543.748 2262.02 541.926C2269.34 537.134 2272.72 539.058 2289.36 557.443C2297.55 566.504 2306.6 576.419 2309.47 579.482C2312.34 582.533 2314.68 585.857 2314.68 586.859C2314.68 587.86 2319.17 593.074 2324.66 598.436C2330.13 603.798 2339.3 613.736 2345 620.521C2370.08 650.301 2379.16 658.019 2390.58 659.237C2407.52 661.059 2587.9 661.901 2588.97 660.182C2589.5 659.305 2592.47 659.101 2595.56 659.715C2608.35 662.277 2598.42 651.28 2492.09 545.194L2382.99 436.353V427.963C2382.99 420.449 2383.93 418.662 2392 410.83C2396.96 406.026 2413.06 390.407 2427.78 376.121C2442.5 361.845 2475.69 329.663 2501.53 304.618C2529.26 277.753 2549.62 256.51 2551.21 252.811C2553.4 247.665 2553.85 229.792 2553.67 153.202C2553.54 101.872 2554.03 58.3742 2554.75 56.5414C2561.28 39.9096 2549.9 41.1391 2530.98 59.1028ZM2550.36 63.6905C2549.61 70.9762 2549.43 114.508 2549.95 160.431C2550.48 206.342 2550.58 245.889 2550.18 248.314C2549.5 252.503 2533.47 269.42 2501.84 299.359C2493.87 306.895 2487.34 313.839 2487.34 314.796C2487.34 317.585 2479.09 318.939 2477.49 316.412C2476.46 314.818 2476.01 315.103 2475.99 317.334C2475.94 322.912 2471.93 329.72 2467.22 332.247C2464.72 333.579 2462.67 335.662 2462.67 336.88C2462.67 338.087 2460.57 340.216 2457.98 341.593C2455.4 342.971 2449.74 348.31 2445.42 353.444C2438.94 361.128 2436.74 362.585 2433.03 361.652C2429.78 360.832 2428.52 361.322 2428.52 363.405C2428.52 364.987 2427.65 366.285 2426.57 366.285C2425.5 366.285 2424.06 367.776 2423.38 369.609C2421.94 373.457 2408.9 386.275 2404.81 387.846C2403.09 388.495 2402.5 390.145 2403.26 392.138C2404.03 394.118 2403.75 394.904 2402.56 394.164C2399.46 392.251 2390.61 397.249 2390.59 400.915C2390.58 402.975 2389.12 404.227 2386.72 404.227C2384.6 404.227 2382.45 405.297 2381.95 406.607C2381.44 407.904 2377.51 409.179 2373.22 409.418C2368.93 409.669 2364.47 410.591 2363.29 411.456C2362.13 412.333 2358.28 413.22 2354.74 413.437C2345.84 413.972 2345.05 414.792 2345.05 423.455C2345.05 430.797 2340.72 438.333 2338.53 434.793C2336.86 432.095 2337.77 411.854 2339.6 410.716C2340.51 410.158 2341.25 408.382 2341.25 406.766C2341.25 405.149 2343.39 401.29 2346 398.182C2348.62 395.075 2350.29 391.773 2349.72 390.84C2348.42 388.722 2354.45 387.345 2367.81 386.707C2377.01 386.264 2378.32 385.706 2378.86 381.938C2379.48 377.509 2378.6 377.236 2361.95 376.838C2351.07 376.576 2350.52 374.606 2351.14 337.529C2351.6 308.5 2351.28 303.651 2348.84 303.526C2347.28 303.446 2346.96 302.979 2348.12 302.501C2349.45 301.955 2349.91 298.528 2349.34 293.451C2348.48 285.915 2349.01 284.685 2356.21 277.331C2360.5 272.949 2364.02 268.406 2364.02 267.223C2364.02 263.102 2370.34 258.138 2375.59 258.138C2381.11 258.138 2384.38 255.429 2381.21 253.471C2380.2 252.833 2379.85 251.069 2380.43 249.543C2381.23 247.449 2379.99 246.754 2375.5 246.754C2371.97 246.754 2369.98 245.969 2370.66 244.853C2371.31 243.817 2370.93 242.964 2369.83 242.964C2365.93 242.964 2367.69 231.955 2372.14 228.392C2374.56 226.446 2376.16 223.429 2375.77 221.494C2375.27 219.023 2376.07 218.226 2378.56 218.648C2380.97 219.057 2382.04 218.078 2382.04 215.449C2382.04 213.047 2384.14 210.747 2387.72 209.176C2394.9 206.057 2401.96 199.489 2401.96 195.937C2401.96 192.738 2421.44 172.759 2424.56 172.759C2425.75 172.759 2427.68 170.63 2428.88 168.012C2430.06 165.405 2432.2 163.276 2433.63 163.276C2435.07 163.276 2436.75 161.922 2437.38 160.283C2439.54 154.636 2548.25 46.9676 2550 48.7207C2550.96 49.677 2551.12 56.2796 2550.36 63.6905ZM3313.53 157.585C3313.53 195.664 3313.79 211.248 3314.1 192.203C3314.4 173.158 3314.4 142 3314.1 122.955C3313.79 103.91 3313.53 119.494 3313.53 157.585ZM3183.66 139.666C3090.98 232.263 3041.21 280.018 3036.19 281.156L3030.92 282.352L3036.01 282.579C3040.27 282.761 3051.74 272.311 3106.07 218.773C3141.79 183.551 3182.1 143.844 3195.62 130.548C3209.16 117.24 3219.47 106.38 3218.54 106.426C3217.62 106.46 3201.92 121.418 3183.66 139.666ZM2658.57 114.519C2652.35 117.297 2653 118.72 2667.12 133.223C2674.15 140.463 2680.69 148.045 2681.63 150.083C2682.58 152.12 2684.22 153.782 2685.29 153.782C2686.87 153.782 2752.96 219.604 2752.96 221.175C2752.96 221.562 2865.08 335.048 2909.5 379.615C2925.7 395.872 2926.53 398.888 2917.65 409.384L2911.59 416.567L2918.6 410.022C2928.42 400.88 2928.02 395.439 2916.81 384.954C2911.96 380.424 2906.19 374.584 2904 371.977C2901.81 369.37 2883.79 350.917 2863.96 330.961C2844.14 311.016 2808.81 275.157 2785.48 251.274C2762.14 227.402 2731.12 195.903 2716.53 181.297C2686.57 151.255 2689.22 154.01 2671.01 134.202C2657.08 119.062 2656.2 115.419 2666.64 116.033C2683.19 117.012 2855.74 115.521 2854.63 114.417C2852.41 112.197 2663.55 112.3 2658.57 114.519ZM1906.33 116.91C1905.74 117.491 1883.19 118.458 1856.21 119.062C1822.06 119.813 1804.93 120.929 1799.8 122.727C1795.76 124.162 1790.42 125.323 1787.94 125.323C1783.22 125.323 1781.74 128.635 1785.81 130.081C1787.12 130.548 1795.8 131.584 1805.11 132.392C1823.89 134.031 1828.54 137.39 1814.83 139.45C1805.3 140.873 1803.16 145.131 1810.56 147.942C1817.04 150.413 1820.88 155.547 1817.7 157.516C1816.33 158.359 1815.8 159.998 1816.52 161.159C1817.36 162.537 1815.79 163.276 1812.02 163.276H1806.21V193.205C1806.21 225.979 1804.96 229.679 1793.96 229.679C1786.29 229.679 1786.79 232.866 1795.17 237.226C1802.97 241.29 1815.7 241.381 1815.7 237.363C1815.7 231.25 1826.69 232.229 1829.74 238.626C1835.71 251.148 1823.97 258.901 1809.22 252.173C1805.3 250.386 1803.54 250.636 1799.17 253.596C1796.26 255.577 1791.81 257.615 1789.29 258.138C1782.91 259.459 1781.86 263.83 1787.92 263.83C1790.55 263.83 1795.54 265.447 1798.98 267.416C1804.94 270.82 1813.13 271.241 1841.9 269.659C1843.26 269.579 1843.85 268.657 1843.2 267.61C1842.55 266.562 1843.35 265.185 1844.99 264.559C1846.61 263.933 1847.95 262.145 1847.95 260.574C1847.95 259.015 1850.13 256.021 1852.8 253.926C1855.46 251.832 1858.94 246.857 1860.54 242.884C1862.12 238.911 1864.62 235.2 1866.08 234.642C1868.79 233.606 1878.31 215.619 1878.31 211.533C1878.31 210.292 1879.45 208.322 1880.85 207.173C1882.23 206.011 1884.51 201.424 1885.91 196.973C1887.31 192.522 1890.31 186.75 1892.58 184.143C1894.85 181.536 1898.19 175.56 1900 170.858C1901.83 166.168 1905.8 157.79 1908.83 152.246C1911.87 146.702 1914.36 140.509 1914.36 138.494C1914.36 136.468 1915.15 134.817 1916.1 134.817C1918.94 134.817 1926.2 121.668 1925.04 118.64C1923.98 115.897 1908.76 114.485 1906.33 116.91ZM2858.26 117.069C2859.31 118.037 2868.49 126.848 2878.66 136.65C2888.84 146.463 2897.16 154.021 2897.16 153.441C2897.16 151.836 2863.24 118.959 2859.6 117.035C2857.63 115.999 2857.11 116.011 2858.26 117.069ZM1788.56 155C1786.14 157.414 1789.49 159.474 1795.83 159.474C1800.79 159.474 1802.05 158.814 1801.2 156.628C1800.12 153.828 1790.91 152.633 1788.56 155ZM2914.3 170.505C2922.31 178.531 2930.9 186.796 2933.41 188.879C2935.91 190.951 2930.7 185.133 2921.83 175.935C2912.95 166.726 2904.36 158.461 2902.72 157.55C2901.07 156.651 2906.28 162.468 2914.3 170.505ZM2956.93 212.603C2962.06 217.817 2966.69 222.086 2967.22 222.086C2967.74 222.086 2963.96 217.817 2958.83 212.603C2953.68 207.389 2949.05 203.12 2948.54 203.12C2948.01 203.12 2951.79 207.389 2956.93 212.603ZM2969.26 223.247C2969.26 224.237 2974.99 230.567 2982.01 237.317L2994.76 249.6L2982.56 236.315C2975.86 229.018 2970.12 222.677 2969.81 222.245C2969.51 221.812 2969.26 222.268 2969.26 223.247ZM2382.99 225.74C2382.99 226.707 2381.5 227.8 2379.67 228.165C2377.55 228.586 2377.11 229.303 2378.47 230.157C2379.63 230.885 2382.11 229.804 2383.98 227.732C2385.91 225.592 2386.44 223.987 2385.18 223.987C2383.98 223.987 2382.99 224.783 2382.99 225.74ZM3310.46 229.565C3309.67 231.796 3288.31 253.721 3265.54 275.692C3256.07 284.822 3248.94 292.267 3249.68 292.233C3252.08 292.142 3312.67 232.285 3312.67 230.009C3312.67 227.333 3311.34 227.072 3310.46 229.565ZM2364.49 250.921C2362.2 253.209 2359.75 254.507 2359.06 253.812C2357.21 251.968 2362.05 246.754 2365.62 246.754C2368.06 246.754 2367.84 247.574 2364.49 250.921ZM2995.83 249.703C2995.83 250.75 3002.01 257.558 3009.57 264.832C3017.13 272.106 3019.78 274.224 3015.46 269.522C3011.15 264.821 3004.96 258.024 3001.71 254.393C2998.48 250.773 2995.83 248.655 2995.83 249.703ZM2381.1 285.653C2379.75 287.27 2379.08 289.011 2379.61 289.535C2380.13 290.059 2381.66 289.159 2382.99 287.543C2384.33 285.926 2385 284.184 2384.48 283.661C2383.96 283.137 2382.43 284.036 2381.1 285.653ZM2375.41 291.971C2375.41 293.189 2372.91 294.191 2369.86 294.191C2360.46 294.191 2358.32 295.898 2358.35 303.4C2358.38 308.569 2358.85 309.593 2360.22 307.464C2361.45 305.575 2362.08 305.415 2362.09 306.998C2362.13 310.333 2367.18 309.958 2368.5 306.52C2369.1 304.949 2370.94 303.674 2372.61 303.674C2374.27 303.674 2375.11 302.843 2374.47 301.818C2373.85 300.794 2374.29 298.164 2375.46 295.967C2376.65 293.758 2377.11 291.47 2376.51 290.867C2375.9 290.252 2375.41 290.753 2375.41 291.971ZM3230.11 311.733L3213.06 329.287L3230.62 312.246C3246.92 296.433 3249.03 294.191 3247.65 294.191C3247.36 294.191 3239.48 302.08 3230.11 311.733ZM3195.42 343.904C3175.03 362.972 3144.84 393.413 3155.2 384.454C3159.89 380.389 3168.01 372.683 3173.22 367.344C3178.43 361.993 3189.37 351.463 3197.53 343.927C3205.68 336.402 3211.82 330.232 3211.19 330.232C3210.55 330.232 3203.45 336.391 3195.42 343.904ZM2411.45 359.648C2411.45 361.378 2412.37 362.505 2413.49 362.13C2414.61 361.754 2415.53 360.638 2415.53 359.648C2415.53 358.658 2414.61 357.531 2413.49 357.166C2412.37 356.791 2411.45 357.906 2411.45 359.648ZM2384.25 378.932C2381.34 381.847 2383.39 384.863 2389.04 385.99C2396.02 387.391 2400.69 384.419 2394.57 382.473C2392.38 381.778 2390.58 380.412 2390.58 379.433C2390.58 377.407 2386.14 377.054 2384.25 378.932ZM3144.69 397.192C3143.43 402.212 3146.24 410.773 3149.86 412.947C3151.74 414.086 3151.71 413.653 3149.72 411.206C3148.28 409.418 3147.09 404.557 3147.09 400.402C3147.09 391.876 3146.3 390.806 3144.69 397.192ZM3159.85 420.848C3163.98 425.276 3168.09 428.896 3169 428.896C3170.72 428.896 3169.76 427.917 3158.89 418.468C3152.91 413.277 3152.99 413.482 3159.85 420.848ZM2684.66 641.558C2561.01 765.608 2427.45 899.585 2387.86 939.269C2330.87 996.427 2316.38 1011.93 2318.24 1013.78C2320.3 1015.84 2341.43 1017.4 2361.18 1016.96C2380.46 1016.53 2426.38 1016.63 2440.86 1017.13C2482.06 1018.58 2525.93 1015.32 2529.75 1010.55C2535.39 1003.5 3023.74 515.675 3026.98 513.865C3030.52 511.884 3036.4 514.719 3042.61 521.424C3045.05 524.054 3047.05 525.295 3047.05 524.179C3047.05 520.935 3033.14 510.314 3029.65 510.894C3027.91 511.19 2950.14 587.416 2856.85 680.286C2763.55 773.167 2651.21 884.729 2607.2 928.215C2563.19 971.701 2527.19 1008.13 2527.19 1009.18C2527.19 1011.89 2505.48 1012.46 2443.71 1011.37C2401.86 1010.63 2389.74 1009.88 2390.1 1008.05C2390.36 1006.74 2389.94 1005.82 2389.16 1005.99C2388.37 1006.16 2385.32 1005.63 2382.37 1004.81C2378.99 1003.85 2376.24 1004.09 2374.88 1005.44C2373.71 1006.62 2371 1007.51 2368.86 1007.45C2365 1007.31 2365 1007.3 2368.76 1005.55C2371.7 1004.19 2371.19 1004.03 2366.57 1004.85C2363.16 1005.44 2360.04 1005.01 2359.31 1003.83C2358.44 1002.44 2355.97 1003.03 2351.75 1005.64C2344.32 1010.24 2337.44 1009.11 2341.89 1004.02C2343.38 1002.32 2345.17 999.034 2345.88 996.712C2347.73 990.655 2356.16 984.463 2359.79 986.5C2361.9 987.684 2364.48 986.375 2369.05 981.787C2376.65 974.206 2376.98 972.612 2370.66 974.206C2366.77 975.185 2365.91 974.707 2365.91 971.531C2365.91 968.468 2366.88 967.831 2370.51 968.491C2374.22 969.163 2376.08 967.819 2380.23 961.41C2392.05 943.23 2394.23 941.045 2398.16 943.503C2400.15 944.744 2402.44 945.12 2403.25 944.312C2404.05 943.515 2403.57 942.16 2402.18 941.306C2398.41 938.973 2401.11 933.042 2408.7 926.985C2412.39 924.06 2418.07 917.935 2421.34 913.382C2424.61 908.84 2428.42 905.117 2429.82 905.117C2431.23 905.117 2433.86 902.681 2435.67 899.698C2437.49 896.716 2443.5 890.398 2449.05 885.673C2454.59 880.938 2461.22 874.21 2463.78 870.704C2470.88 860.959 2596.61 733.073 2807.64 520.912C2896 432.084 2912.44 415.247 2910.27 415.816C2909.84 415.93 2808.32 517.508 2684.66 641.558ZM2358.33 430.911C2358.33 433.051 2357.48 434.281 2356.43 433.643C2355.38 432.994 2354.53 431.241 2354.53 429.727C2354.53 428.224 2355.38 426.995 2356.43 426.995C2357.48 426.995 2358.33 428.76 2358.33 430.911ZM3186.1 445.494C3206.66 465.017 3206.55 464.926 3214.87 472.337C3218.85 475.877 3221.77 477.983 3221.37 477.016C3220.98 476.048 3211.27 466.668 3199.78 456.16C3188.3 445.664 3177.74 435.658 3176.31 433.939C3174.87 432.209 3173 430.797 3172.16 430.797C3171.31 430.797 3177.58 437.411 3186.1 445.494ZM2345.61 441.657C2345.11 444.082 2355.09 442.227 2356.8 439.574C2357.66 438.254 2359.72 439.028 2362.63 441.771C2365.12 444.105 2367.65 445.505 2368.27 444.89C2368.88 444.276 2371.58 445.209 2374.28 446.974C2376.97 448.738 2380.52 449.66 2382.17 449.034C2385.92 447.588 2390.58 452.051 2390.58 457.083C2390.58 464.015 2399.07 469.73 2401.19 464.232C2402.78 460.076 2412.7 470.652 2411.64 475.376C2410.95 478.496 2411.29 478.769 2413.53 476.936C2415.76 475.115 2417.66 476.412 2423.82 483.96C2427.98 489.048 2432.44 493.26 2433.75 493.306C2437.38 493.454 2436.56 497.199 2432.89 497.199C2430.38 497.199 2430.17 497.7 2431.94 499.476C2433.66 501.184 2434.76 501.218 2436.4 499.578C2439.14 496.835 2449.72 507.422 2448.21 511.384C2447.52 513.171 2448.3 513.717 2450.68 513.125C2453.01 512.533 2455.38 514.116 2457.94 518.009C2460.02 521.185 2463.26 524.27 2465.13 524.873C2467.56 525.659 2468.2 527.139 2467.38 530.076C2466.48 533.297 2466.65 533.582 2468.17 531.351C2470.02 528.664 2483.35 539.149 2492.31 550.328C2493.56 551.887 2506.74 565.127 2521.6 579.732C2536.45 594.338 2559.15 616.673 2572.05 629.366C2584.94 642.047 2595.49 653.397 2595.49 654.581C2595.49 656.824 2414 655.708 2400.06 653.386C2396.41 652.771 2390.47 652.179 2386.85 652.054C2382.32 651.894 2379.66 650.642 2378.31 648.001C2377.24 645.895 2374.53 642.366 2372.3 640.158C2369.41 637.289 2368.54 634.659 2369.26 630.925L2370.25 625.7L2373.48 629.969C2375.84 633.111 2377.8 633.908 2380.79 632.952C2385.86 631.347 2386.03 627.84 2381.27 623.526C2379.28 621.727 2376.61 617.766 2375.36 614.726C2372.2 607.088 2354.53 602.523 2354.53 609.342C2354.53 610.275 2352.7 611.038 2350.44 611.038C2346.48 611.038 2346.46 610.924 2349.79 607.247C2351.68 605.152 2354.86 603.445 2356.86 603.445C2362.87 603.445 2360.13 596.91 2353.82 596.182C2348.65 595.59 2348.46 595.226 2349.59 588.145C2350.58 581.952 2350.13 580.347 2346.86 578.332C2344.69 577.011 2341.61 573.164 2339.98 569.771C2338.35 566.379 2335.79 563.601 2334.29 563.601C2332.77 563.601 2332.07 562.747 2332.72 561.712C2334.7 558.501 2338.85 559.606 2339.9 563.601C2340.45 565.696 2342.26 567.404 2343.92 567.404C2345.68 567.404 2346.95 568.986 2346.95 571.194C2346.95 575.771 2350.38 576.226 2352.06 571.866C2352.76 570.022 2351.97 567.813 2350.1 566.447C2346.63 563.909 2345.85 559.81 2348.84 559.81C2349.88 559.81 2350.74 558.103 2350.74 556.02C2350.74 552.809 2352 552.217 2358.96 552.217C2368.45 552.217 2369.66 551.477 2368.34 546.423C2367.56 543.475 2365.7 542.735 2359.06 542.735C2349.5 542.735 2348.86 541.369 2355.48 535.142C2361.37 529.609 2361.39 528.038 2355.61 521.971C2351.12 517.269 2350.96 516.108 2350.38 483.914C2349.8 451.527 2349.69 450.696 2345.68 450.127C2341.1 449.478 2338.9 445.585 2340.59 441.145C2341.79 438.049 2346.26 438.504 2345.61 441.657ZM3235.79 491.189C3243.06 498.668 3249.24 504.792 3249.54 504.792C3252.08 504.792 3247.91 500.068 3236.29 489.766L3222.55 477.596L3235.79 491.189ZM3253.68 508.253C3254.83 510.405 3256.71 512.738 3257.85 513.444C3259.34 514.366 3259.33 513.626 3257.83 510.814C3256.68 508.663 3254.8 506.318 3253.66 505.612C3252.17 504.69 3252.18 505.441 3253.68 508.253ZM3264.3 518.544C3266.1 521.413 3268.37 523.758 3269.33 523.758C3270.3 523.758 3275.32 527.719 3280.5 532.558C3285.67 537.396 3289.91 540.845 3289.91 540.219C3289.91 538.591 3274.24 523.758 3272.52 523.758C3271.74 523.758 3268.82 521.413 3266.06 518.544L3261.02 513.33L3264.3 518.544ZM3048.94 525.932C3048.94 527.583 3078.53 555.951 3103.97 578.708C3122.14 594.964 3123.25 595.738 3110.53 583.284C3102.14 575.076 3091.89 565.457 3087.76 561.916C3083.63 558.376 3073.21 548.575 3064.6 540.139C3055.99 531.704 3048.94 525.306 3048.94 525.932ZM3308.29 558.706L3317.42 567.096L3317.12 616.104L3316.83 665.111L3319.38 622.422C3321.2 591.833 3321.36 577.854 3319.92 573.095C3318.02 566.766 3304.19 550.328 3300.78 550.328C3299.88 550.328 3303.26 554.096 3308.29 558.706ZM2378.05 600.758C2378.67 602.409 2379.2 604.116 2379.2 604.549C2379.2 604.993 2380.9 605.346 2382.99 605.346C2387.29 605.346 2387.85 603.376 2384.51 600.03C2381.14 596.671 2376.67 597.172 2378.05 600.758ZM3126.74 598.47C3126.74 600.052 3157.86 630.948 3169.66 641.068C3173.7 644.541 3183.02 653.078 3190.38 660.045C3197.72 667.001 3211.79 679.956 3221.64 688.824C3231.48 697.692 3248.7 713.493 3259.89 723.932C3306.09 767.019 3310.46 770.321 3311.9 763.251C3312.17 761.92 3311.96 761.703 3311.42 762.773C3309.62 766.416 3306.79 764.731 3292.18 751.298C3284.15 743.922 3275.43 735.942 3272.78 733.585C3270.15 731.217 3255.33 717.523 3239.83 703.156C3224.33 688.778 3209.88 675.619 3207.71 673.911C3202.57 669.858 3175.04 643.937 3148.12 617.789C3136.36 606.359 3126.74 597.673 3126.74 598.47ZM2359 618.323C2355.12 619.189 2353.81 617.549 2355.3 613.679C2356.43 610.719 2356.76 610.753 2359.2 614.066C2361.51 617.197 2361.48 617.766 2359 618.323ZM3314.11 695.472C3313.32 709.03 3312.81 729.1 3312.97 740.051C3313.19 755.442 3313.62 751.549 3314.88 722.975C3315.77 702.632 3316.28 682.563 3316.01 678.396C3315.74 674.218 3314.88 681.902 3314.11 695.472ZM2411.45 952.929C2411.45 955.161 2412.1 956.208 2412.87 955.263C2413.66 954.318 2415.01 953.02 2415.88 952.36C2416.75 951.711 2416.1 950.664 2414.45 950.026C2412.29 949.195 2411.45 950.015 2411.45 952.929ZM2377.3 982.436C2377.3 983.381 2375.17 985.305 2372.56 986.705C2366.34 990.029 2366.19 996.188 2372.32 996.188C2379.52 996.188 2385.78 983.711 2379.67 981.537C2378.37 981.07 2377.3 981.48 2377.3 982.436Z" fill="#B24BF2"/>
<path fill-rule="evenodd" clip-rule="evenodd" d="M982.132 48.8283C980.925 50.0236 973.788 64.5267 969.496 74.4876C968.46 76.8896 966.809 80.1226 965.83 81.6935C963.793 84.9379 951.566 109.254 946.273 120.592C944.315 124.759 941.332 130.735 939.648 133.866C928.07 155.279 872.107 264.177 821.187 364.389C810.851 384.743 801.618 402.673 800.662 404.232C799.706 405.803 795.209 414.762 790.667 424.154C786.125 433.546 779.75 446.353 776.505 452.614C773.261 458.875 768.73 468.267 766.442 473.492C764.154 478.706 760.397 485.536 758.098 488.667C755.81 491.797 752.77 497.341 751.347 500.995C749.935 504.649 746.896 511.059 744.596 515.225C742.297 519.403 739.144 525.379 737.584 528.51C736.024 531.641 733.44 536.763 731.835 539.894C730.219 543.024 722.819 557.539 715.363 572.144C707.918 586.761 701.076 599.989 700.154 601.56C699.243 603.12 696.636 608.243 694.382 612.944C692.117 617.634 686.926 628.085 682.839 636.167C674.791 652.082 673.766 657.432 678.422 659.219C685.89 662.088 843.932 660.449 846.903 657.478C848.497 655.884 854.462 645.434 860.154 634.232C895.273 565.246 913.453 529.705 923.448 510.489C929.698 498.479 936.107 486.105 937.689 482.975C977.453 404.403 976.918 405.337 984.944 402.536C994.199 399.303 993.584 398.324 1034.87 481.836C1040.76 493.732 1047.24 505.594 1049.27 508.178C1062.34 524.787 1054.93 527.565 997.523 527.565C962.62 527.565 948.766 528.191 947.115 529.842C944.144 532.813 943.848 651.182 946.808 656.704C948.709 660.278 952.135 660.369 1075.23 660.369C1184.88 660.369 1201.21 660.016 1198.02 657.683C1193.26 654.199 1195.23 652.401 1203.82 652.401C1212.43 652.401 1214.08 653.926 1209.38 657.489C1206.06 659.982 1207.12 660.255 1220.41 660.312C1234.49 660.369 1235.08 660.198 1234.47 656.203C1234.11 653.915 1232.78 651.683 1231.5 651.262C1227.94 650.078 1238.53 645.229 1245.3 644.944L1251.26 644.694L1244.61 643.293C1238.86 642.087 1238.66 641.87 1243.03 641.654C1245.82 641.518 1248.48 640.334 1248.96 639.024C1249.65 637.135 1250.34 637.135 1252.35 639.024C1255.53 642.03 1263.4 642.349 1260.4 639.355C1258.93 637.886 1259.64 635.917 1262.87 632.433C1266.35 628.677 1266.9 626.969 1265.24 624.977C1263.45 622.814 1262.68 622.939 1260.65 625.728C1257.85 629.542 1257.02 629.041 1255.08 622.427C1253.75 617.816 1253.8 617.794 1256.69 621.482C1259.62 625.216 1259.67 625.204 1259.73 620.742C1259.8 615.858 1251.87 607.252 1247.31 607.252C1243.56 607.252 1241.65 601.868 1244.4 599.101C1246.08 597.439 1247.51 597.473 1250.32 599.238C1254.84 602.05 1255.99 602.141 1255.99 599.659C1255.99 598.612 1254.72 597.758 1253.15 597.758C1251.59 597.758 1250.3 596.859 1250.3 595.754C1250.3 594.65 1251.17 594.275 1252.23 594.935C1253.3 595.584 1254.66 593.535 1255.31 590.302C1256.64 583.642 1258.9 582.731 1260.34 588.275C1260.89 590.359 1262.29 592.066 1263.45 592.066C1264.83 592.066 1264.6 590.563 1262.81 587.797C1261.3 585.452 1256.2 575.844 1251.47 566.452C1246.76 557.061 1242.86 550.424 1242.8 551.699C1242.75 552.963 1244.43 557.049 1246.51 560.76C1248.59 564.483 1250.3 569.162 1250.3 571.165C1250.3 573.169 1251.7 575.594 1253.42 576.55C1255.17 577.529 1255.93 579.271 1255.15 580.523C1254.09 582.242 1253.14 582.242 1251.09 580.546C1249.61 579.328 1248.41 579.043 1248.41 579.919C1248.41 580.785 1243.7 576.857 1237.94 571.165C1231.1 564.403 1227.86 559.827 1228.62 557.949C1230.78 552.519 1231.13 548.329 1229.33 549.445C1228.34 550.048 1227.53 549.217 1227.53 547.601C1227.53 545.973 1228.42 544.641 1229.49 544.641C1230.57 544.641 1232.19 542.717 1233.1 540.372C1234.73 536.126 1234.75 536.126 1236.78 541.317C1237.9 544.186 1239.33 546.531 1239.93 546.531C1240.55 546.531 1240.74 545.893 1240.36 545.108C1236 535.921 1234.28 533.69 1232.19 534.498C1230.84 535.022 1228.77 533.667 1227.61 531.504C1226.45 529.33 1224.26 527.565 1222.73 527.565C1221.2 527.565 1219.95 526.586 1219.95 525.402C1219.95 524.207 1218.45 522.078 1216.63 520.655C1213.46 518.196 1213.46 517.957 1216.63 515.498C1218.45 514.075 1219.95 511.935 1219.95 510.751C1219.95 509.556 1220.94 508.588 1222.16 508.588C1223.38 508.588 1223.74 507.962 1222.98 507.188C1222.21 506.425 1220.57 505.776 1219.34 505.765C1218.11 505.754 1217.11 504.888 1217.11 503.841C1217.11 502.805 1217.55 502.099 1218.09 502.282C1218.63 502.464 1215.25 494.598 1210.56 484.819C1205.87 475.029 1201.48 467.925 1200.79 469.029C1199.95 470.407 1199.1 470.304 1198.12 468.733C1197.33 467.458 1197.75 465.774 1199.04 464.977C1200.7 463.941 1200.77 463.155 1199.28 462.233C1198.13 461.516 1197.18 461.835 1197.18 462.939C1197.18 466.4 1192.52 465.136 1189.92 460.97C1186.77 455.927 1188.62 453.946 1193.59 457.042C1196.99 459.171 1197.22 459.057 1195.65 456.029C1194.69 454.151 1187.78 440.046 1180.3 424.689C1172.82 409.332 1165.37 396.025 1163.75 395.114C1162.12 394.203 1160.9 392.678 1161.04 391.733C1161.88 385.813 1152.34 367.531 1149.37 369.375C1148.34 370.001 1147.69 368.533 1147.89 366.028C1148.61 357.547 1148.05 355.453 1145.96 358.697C1144.94 360.268 1144.04 361.122 1143.95 360.598C1143.86 360.074 1143.5 357.513 1143.13 354.906C1142.55 350.671 1132.87 329.497 1123.18 311.272C1121.23 307.618 1117.57 300.355 1115.02 295.141C1102.88 270.29 1096.08 256.789 1093.52 252.451C1091.99 249.845 1089.42 244.722 1087.82 241.068C1086.23 237.413 1080.16 225.039 1074.34 213.553C1068.52 202.078 1062.56 190.125 1061.09 186.994C1059.63 183.864 1057.17 179.174 1055.64 176.555C1054.1 173.948 1049.44 164.557 1045.29 155.689C1041.13 146.821 1036.97 138.283 1036.01 136.712C1035.07 135.152 1031.54 128.322 1028.17 121.537C1024.81 114.752 1020.59 107.068 1018.8 104.461C1017 101.854 1011.89 91.3926 1007.43 81.2154C1002.96 71.0496 998.718 62.7167 997.978 62.7167C997.25 62.7167 995.098 59.3015 993.22 55.135C990.044 48.0884 985.468 45.4929 982.132 48.8283ZM14.6862 117.894C9.91641 120.672 9.46104 738.167 14.2309 738.167C17.2818 738.167 25.8424 734.535 50.2608 722.901C100.361 699.029 110.242 694.521 112.474 694.521C113.84 694.521 115.764 693.735 116.754 692.768C119.532 690.058 159.682 670.49 165.044 669.237C177.157 666.403 176.428 672.311 177.043 571.826C177.487 499.8 178.124 479.81 180.094 477.442C184.215 472.479 443.869 472.911 448.377 477.886C451.166 480.971 451.553 490.841 451.997 570.38L452.487 659.424L529.111 659.925C584.471 660.278 606.453 659.811 608.343 658.252C613.136 654.268 611.997 120.353 607.193 117.78C602.833 115.447 457.507 115.128 453.853 117.439C451.952 118.646 451.337 137.998 451.007 207.064C450.699 271.679 449.971 296.53 448.263 300.355L445.941 305.58H315.027H184.101L180.743 300.446C177.658 295.733 177.35 288.083 177.066 208.305C176.883 160.447 176.269 120.069 175.699 118.577C174.402 115.196 20.4237 114.547 14.6862 117.894ZM1304.86 245.815C1304.36 248.422 1304.69 250.55 1305.59 250.55C1306.49 250.55 1307.22 248.422 1307.22 245.815C1307.22 243.208 1306.9 241.068 1306.49 241.068C1306.09 241.068 1305.37 243.208 1304.86 245.815ZM1302.37 361.543C1302.37 391.813 1302.63 403.925 1302.95 388.466C1303.27 373.007 1303.27 348.247 1302.95 333.448C1302.63 318.637 1302.37 331.285 1302.37 361.543ZM1302.33 487.722C1302.33 507.017 1302.6 514.918 1302.95 505.264C1303.29 495.611 1303.29 479.821 1302.95 470.168C1302.6 460.514 1302.33 468.415 1302.33 487.722ZM1194.26 469.849C1197.61 474.949 1197.04 480.129 1193.13 480.129C1191.88 480.129 1191.39 479.594 1192.05 478.945C1192.7 478.284 1191.99 475.336 1190.47 472.388C1185.82 463.406 1188.75 461.436 1194.26 469.849ZM1222.32 515.339C1219.05 518.891 1219.28 519.403 1224.61 520.416C1228.9 521.236 1229.01 518.39 1224.9 513.051C1224.79 512.891 1223.63 513.927 1222.32 515.339ZM1276.83 625.318C1274.72 627.868 1274.96 628.472 1278.45 629.382C1280.71 629.974 1282.56 631.534 1282.56 632.854C1282.56 634.164 1283.96 636.406 1285.68 637.829C1288.2 639.924 1282.9 626.548 1279.75 622.859C1279.5 622.575 1278.19 623.679 1276.83 625.318Z" fill="#5A69F9"/>
<path fill-rule="evenodd" clip-rule="evenodd" d="M3288.12 40.9017C3276.31 52.3767 3261.18 66.8911 3254.51 73.1522C3242.23 84.6613 3223.76 102.784 3106.08 218.775C3063.68 260.565 3039.78 282.809 3037.27 282.809C3029.07 282.809 3020.37 276.104 2993.52 249.113C2959.7 215.098 2905.31 161.662 2877.63 135.263L2857.22 115.785L2760.04 115.876C2706.37 115.933 2661.63 116.73 2660.12 117.674C2657.96 119.006 2660.26 122.49 2671.03 134.204C2689.24 154.012 2686.59 151.257 2716.55 181.299C2731.13 195.904 2762.15 227.403 2785.49 251.275C2808.83 275.159 2844.15 311.018 2863.97 330.962C2883.8 350.918 2901.82 369.372 2904.02 371.978C2906.21 374.585 2911.98 380.425 2916.83 384.956C2931.57 398.731 2938.17 390.295 2818.54 510.281C2614.99 714.382 2471.38 860.3 2463.79 870.705C2461.23 874.211 2454.61 880.939 2449.06 885.675C2443.52 890.399 2437.51 896.717 2435.69 899.7C2433.88 902.683 2431.25 905.119 2429.84 905.119C2428.44 905.119 2424.62 908.841 2421.35 913.383C2418.09 917.937 2412.41 924.061 2408.72 926.987C2401.13 933.043 2398.43 938.974 2402.2 941.308C2403.58 942.162 2404.06 943.516 2403.27 944.313C2402.46 945.122 2400.17 944.746 2398.18 943.505C2394.25 941.046 2392.06 943.232 2380.25 961.412C2376.09 967.821 2374.24 969.164 2370.53 968.493C2366.89 967.832 2365.93 968.47 2365.93 971.532C2365.93 974.708 2366.78 975.186 2370.67 974.207C2376.99 972.614 2376.66 974.207 2369.07 981.789C2364.49 986.377 2361.92 987.686 2359.8 986.502C2356.17 984.464 2347.75 990.657 2345.89 996.713C2345.19 999.036 2343.4 1002.33 2341.91 1004.02C2337.46 1009.11 2344.33 1010.24 2351.77 1005.64C2355.35 1003.42 2358.52 1002.54 2359.17 1003.58C2361.09 1006.69 2371.56 1008.1 2374.52 1005.64C2376.27 1004.18 2379.17 1003.9 2382.51 1004.83C2385.39 1005.64 2388.39 1006.16 2389.17 1005.99C2389.96 1005.82 2390.38 1006.74 2390.12 1008.05C2389.75 1009.88 2401.88 1010.64 2443.72 1011.38C2505.49 1012.46 2527.2 1011.89 2527.2 1009.18C2527.2 1008.13 2563.21 971.703 2607.22 928.217C2651.23 884.73 2763.57 773.168 2856.87 680.288C2950.16 587.418 3028.11 511.158 3030.08 510.827C3032.54 510.418 3040.76 517.123 3056.03 532.001C3068.31 543.966 3082.19 557.046 3086.86 561.053C3096.44 569.284 3115.52 587.054 3147.67 617.676C3184.78 653.035 3203.61 670.668 3207.73 673.913C3209.89 675.62 3224.35 688.78 3239.84 703.158C3255.35 717.524 3270.17 731.219 3272.8 733.587C3275.44 735.943 3284.16 743.923 3292.2 751.3C3312.65 770.106 3312.68 770.083 3312.71 736.581C3312.73 724.4 3313.53 702.486 3314.5 687.881C3315.45 673.275 3316.51 640.137 3316.83 614.25L3317.44 567.178L3295.61 546.425C3283.61 535.018 3273.19 525.683 3272.45 525.672C3271.7 525.661 3266.07 520.754 3259.95 514.755C3245.2 500.332 3218.97 475.594 3207.11 464.95C3201.89 460.249 3187.76 447.18 3175.73 435.91C3163.7 424.629 3152.08 414.167 3149.93 412.664C3137.3 403.808 3142.22 394.769 3178.31 360.595C3194.28 345.465 3224.08 316.573 3244.52 296.401C3264.96 276.229 3282.46 259.142 3283.43 258.436C3284.39 257.73 3291.37 250.638 3298.94 242.669L3312.69 228.189L3312.49 128.853C3312.27 5.56625 3314.85 14.9124 3288.12 40.9017ZM2493.43 102.147C2463.25 132.474 2438.03 158.634 2437.39 160.284C2436.77 161.924 2435.08 163.278 2433.65 163.278C2432.22 163.278 2430.08 165.407 2428.89 168.014C2427.7 170.632 2425.76 172.761 2424.58 172.761C2421.46 172.761 2401.98 192.74 2401.98 195.938C2401.98 199.49 2394.91 206.059 2387.74 209.178C2384.15 210.749 2382.06 213.048 2382.06 215.45C2382.06 218.08 2380.99 219.059 2378.57 218.649C2376.08 218.228 2375.28 219.025 2375.79 221.495C2376.17 223.43 2374.58 226.447 2372.15 228.394C2367.7 231.957 2365.95 242.965 2369.84 242.965C2370.95 242.965 2371.32 243.819 2370.67 244.855C2369.99 245.971 2371.98 246.756 2375.51 246.756C2380.01 246.756 2381.25 247.45 2380.44 249.545C2379.86 251.071 2380.21 252.835 2381.23 253.473C2384.39 255.431 2381.12 258.14 2375.6 258.14C2370.36 258.14 2364.04 263.103 2364.04 267.224C2364.04 268.408 2360.52 272.95 2356.23 277.333C2349.02 284.687 2348.5 285.917 2349.35 293.453C2349.92 298.53 2349.47 301.956 2348.13 302.503C2346.97 302.981 2347.29 303.448 2348.85 303.527C2351.3 303.653 2351.62 308.502 2351.15 337.531C2350.54 374.608 2351.08 376.578 2361.97 376.839C2378.62 377.238 2379.5 377.511 2378.87 381.939C2378.34 385.707 2377.03 386.265 2367.83 386.709C2354.46 387.347 2348.43 388.724 2349.74 390.842C2350.31 391.775 2348.63 395.076 2346.02 398.184C2343.41 401.292 2341.27 405.151 2341.27 406.768C2341.27 408.384 2340.53 410.16 2339.62 410.718C2337.79 411.856 2336.88 432.097 2338.55 434.795C2340.73 438.335 2345.06 430.799 2345.06 423.456C2345.06 414.793 2345.86 413.974 2354.76 413.438C2358.3 413.222 2362.15 412.334 2363.31 411.458C2364.48 410.593 2368.94 409.67 2373.24 409.42C2377.53 409.181 2381.45 407.906 2381.97 406.608C2382.47 405.299 2384.62 404.229 2386.74 404.229C2389.14 404.229 2390.6 402.977 2390.61 400.916C2390.63 397.251 2399.48 392.253 2402.57 394.166C2403.77 394.906 2404.04 394.12 2403.28 392.139C2402.51 390.147 2403.11 388.496 2404.83 387.848C2408.91 386.277 2421.96 373.458 2423.39 369.611C2424.08 367.778 2425.51 366.287 2426.58 366.287C2427.66 366.287 2428.54 364.989 2428.54 363.406C2428.54 361.323 2429.79 360.834 2433.05 361.653C2436.76 362.587 2438.95 361.13 2445.43 353.446C2449.76 348.311 2455.42 342.972 2458 341.595C2460.58 340.218 2462.69 338.089 2462.69 336.882C2462.69 335.664 2464.74 333.581 2467.23 332.249C2471.94 329.722 2475.95 322.914 2476.01 317.336C2476.02 315.105 2476.48 314.82 2477.5 316.414C2479.11 318.941 2487.36 317.586 2487.36 314.797C2487.36 313.841 2493.88 306.897 2501.85 299.361C2533.49 269.421 2549.51 252.505 2550.2 248.316C2550.6 245.891 2550.49 206.343 2549.97 160.432C2549.45 114.51 2549.63 70.9779 2550.38 63.6922C2551.13 56.2813 2550.97 49.6787 2550.02 48.7224C2549 47.7093 2526.09 69.3386 2493.43 102.147ZM2383.99 227.734C2382.13 229.805 2379.64 230.887 2378.48 230.158C2377.13 229.305 2377.56 228.587 2379.69 228.166C2381.51 227.802 2383 226.709 2383 225.741C2383 224.785 2383.99 223.988 2385.2 223.988C2386.45 223.988 2385.93 225.593 2383.99 227.734ZM2360.2 249.648C2356.3 254.36 2359.98 255.453 2364.5 250.923C2367.85 247.576 2368.08 246.756 2365.63 246.756C2363.97 246.756 2361.52 248.054 2360.2 249.648ZM2383 287.544C2381.67 289.161 2380.15 290.06 2379.62 289.537C2379.1 289.013 2379.77 287.271 2381.11 285.655C2382.44 284.038 2383.97 283.139 2384.49 283.663C2385.02 284.186 2384.35 285.928 2383 287.544ZM2375.48 295.969C2374.31 298.166 2373.86 300.795 2374.49 301.82C2375.12 302.844 2374.28 303.675 2372.62 303.675C2370.96 303.675 2369.11 304.95 2368.51 306.521C2367.19 309.959 2362.15 310.335 2362.1 306.999C2362.09 305.417 2361.46 305.576 2360.24 307.466C2358.87 309.595 2358.39 308.57 2358.37 303.402C2358.33 295.9 2360.47 294.193 2369.88 294.193C2372.93 294.193 2375.42 293.191 2375.42 291.973C2375.42 290.755 2375.91 290.254 2376.53 290.868C2377.13 291.472 2376.66 293.76 2375.48 295.969ZM2415.55 359.65C2415.55 360.64 2414.63 361.756 2413.5 362.131C2412.38 362.507 2411.46 361.38 2411.46 359.65C2411.46 357.908 2412.38 356.792 2413.5 357.168C2414.63 357.532 2415.55 358.659 2415.55 359.65ZM2390.6 379.435C2390.6 380.414 2392.39 381.78 2394.58 382.474C2400.7 384.421 2396.04 387.392 2389.06 385.992C2383.4 384.865 2381.35 381.848 2384.27 378.934C2386.16 377.056 2390.6 377.409 2390.6 379.435ZM2354.54 429.729C2354.54 431.243 2355.4 432.996 2356.44 433.645C2357.49 434.282 2358.35 433.053 2358.35 430.913C2358.35 428.761 2357.49 426.997 2356.44 426.997C2355.4 426.997 2354.54 428.226 2354.54 429.729ZM2340.61 441.147C2338.91 445.586 2341.11 449.48 2345.7 450.129C2349.7 450.698 2349.82 451.529 2350.4 483.916C2350.98 516.11 2351.14 517.271 2355.62 521.972C2361.41 528.04 2361.38 529.611 2355.5 535.143C2348.87 541.37 2349.51 542.736 2359.07 542.736C2365.71 542.736 2367.58 543.476 2368.35 546.425C2369.67 551.479 2368.47 552.219 2358.97 552.219C2352.02 552.219 2350.75 552.811 2350.75 556.021C2350.75 558.105 2349.9 559.812 2348.85 559.812C2345.87 559.812 2346.64 563.91 2350.11 566.449C2351.98 567.815 2352.78 570.023 2352.07 571.868C2350.4 576.228 2346.96 575.772 2346.96 571.196C2346.96 568.988 2345.7 567.405 2343.93 567.405C2342.27 567.405 2340.46 565.698 2339.91 563.603C2338.87 559.607 2334.71 558.503 2332.73 561.713C2332.08 562.749 2332.79 563.603 2334.3 563.603C2335.81 563.603 2338.37 566.381 2339.99 569.773C2341.62 573.165 2344.71 577.013 2346.87 578.334C2350.15 580.349 2350.59 581.954 2349.6 588.147C2348.48 595.227 2348.67 595.592 2353.84 596.184C2360.14 596.912 2362.89 603.446 2356.88 603.446C2354.87 603.446 2351.7 605.154 2349.81 607.249C2346.47 610.926 2346.49 611.04 2350.46 611.04C2352.71 611.04 2354.54 610.277 2354.54 609.343C2354.54 602.524 2372.21 607.089 2375.38 614.728C2376.63 617.767 2379.29 621.729 2381.28 623.528C2386.04 627.842 2385.87 631.348 2380.81 632.953C2377.81 633.91 2375.85 633.113 2373.5 629.971L2370.26 625.702L2369.27 630.927C2368.56 634.661 2369.42 637.291 2372.31 640.159C2374.54 642.368 2377.25 645.897 2378.32 648.003C2379.68 650.644 2382.33 651.896 2386.86 652.056C2390.48 652.181 2396.42 652.773 2400.08 653.388C2414.01 655.71 2595.51 656.825 2595.51 654.583C2595.51 653.399 2584.95 642.049 2572.07 629.368C2559.17 616.675 2536.47 594.339 2521.61 579.734C2506.76 565.128 2493.57 551.889 2492.32 550.329C2483.36 539.15 2470.03 528.666 2468.19 531.353C2466.66 533.584 2466.49 533.299 2467.39 530.078C2468.21 527.141 2467.57 525.661 2465.15 524.875C2463.27 524.272 2460.04 521.187 2457.95 518.011C2455.39 514.117 2453.02 512.535 2450.69 513.127C2448.31 513.719 2447.54 513.173 2448.22 511.385C2449.73 507.424 2439.16 496.837 2436.42 499.58C2434.78 501.219 2433.67 501.185 2431.95 499.478C2430.19 497.702 2430.39 497.201 2432.91 497.201C2436.58 497.201 2437.39 493.456 2433.76 493.308C2432.45 493.262 2427.99 489.05 2423.84 483.961C2417.68 476.414 2415.78 475.116 2413.55 476.938C2411.3 478.77 2410.96 478.497 2411.66 475.378C2412.71 470.654 2402.8 460.078 2401.21 464.233C2399.09 469.732 2390.6 464.017 2390.6 457.084C2390.6 452.053 2385.94 447.59 2382.18 449.036C2380.53 449.662 2376.98 448.74 2374.29 446.975C2371.6 445.211 2368.9 444.277 2368.28 444.892C2367.67 445.507 2365.13 444.107 2362.65 441.773C2359.73 439.029 2357.67 438.255 2356.82 439.576C2355.1 442.228 2345.13 444.084 2345.63 441.659C2346.28 438.506 2341.8 438.05 2340.61 441.147ZM2384.53 600.031C2387.86 603.378 2387.31 605.348 2383 605.348C2380.92 605.348 2379.21 604.995 2379.21 604.551C2379.21 604.118 2378.69 602.411 2378.06 600.76C2376.68 597.174 2381.16 596.673 2384.53 600.031ZM2355.32 613.681C2353.83 617.551 2355.14 619.19 2359.02 618.325C2361.5 617.767 2361.52 617.198 2359.21 614.068C2356.77 610.755 2356.44 610.721 2355.32 613.681ZM2415.89 952.362C2415.03 953.022 2413.67 954.32 2412.89 955.265C2412.11 956.209 2411.46 955.162 2411.46 952.931C2411.46 950.017 2412.3 949.197 2414.47 950.028C2416.12 950.666 2416.77 951.713 2415.89 952.362ZM2381.55 986.764C2380.84 992.9 2377.62 996.19 2372.34 996.19C2366.2 996.19 2366.36 990.031 2372.57 986.707C2375.18 985.307 2377.31 983.383 2377.31 982.438C2377.31 981.482 2378.38 981.072 2379.69 981.539C2380.99 982.005 2381.83 984.35 2381.55 986.764Z" fill="#ED6CF9"/>
<path fill-rule="evenodd" clip-rule="evenodd" d="M1423.92 122.284C1406.24 128.602 1393.33 134.487 1384.86 140.099C1382.15 141.887 1376.43 145.677 1372.15 148.523C1342.02 168.548 1307.61 219.832 1307.3 245.172C1307.27 247.961 1306.21 250.58 1304.94 251.001C1301.99 251.98 1302.13 523.348 1305.08 528.813C1306.12 530.736 1307.46 533.878 1308.06 535.814C1308.73 537.965 1310.26 538.91 1311.99 538.25C1315.26 536.998 1315.75 539.161 1312.84 542.052C1311.48 543.429 1311.76 544.773 1313.8 546.458C1315.41 547.801 1316.73 549.975 1316.73 551.284C1316.73 557.898 1327.69 573.084 1331.57 571.855C1334.07 571.047 1334.2 571.229 1332.13 572.709C1322.66 579.459 1377.41 632.349 1415.69 653.409L1428.33 660.364H1541.4H1654.47L1658.72 655.492C1661.06 652.806 1668.57 639.782 1675.41 626.554C1687.53 603.081 1706.34 567.506 1717.7 546.526C1725.57 532.023 1734.04 516.245 1737.48 509.722C1743.86 497.644 1750.21 498.247 1606.81 497.2C1467.58 496.186 1471.88 496.517 1465.18 486.305C1460.85 479.68 1460.01 290.787 1464.29 283.297C1470.37 272.653 1462.66 273.051 1657.91 273.245C1756.7 273.347 1840.33 272.858 1843.74 272.175C1849.33 271.048 1850.91 269.033 1859.91 251.513C1866.32 239.014 1868.68 232.832 1866.54 234.164C1864.71 235.314 1861.96 239.367 1860.43 243.18C1858.9 246.994 1855.48 251.832 1852.81 253.927C1850.15 256.021 1847.96 259.015 1847.96 260.575C1847.96 262.146 1846.63 263.933 1845.01 264.559C1843.37 265.185 1842.57 266.563 1843.22 267.61C1843.87 268.657 1843.27 269.579 1841.92 269.659C1813.15 271.241 1804.96 270.82 1799 267.416C1795.55 265.447 1790.57 263.83 1787.94 263.83C1781.88 263.83 1782.93 259.459 1789.3 258.139C1791.83 257.615 1796.28 255.577 1799.19 253.596C1803.56 250.637 1805.32 250.386 1809.24 252.173C1823.99 258.901 1835.73 251.149 1829.76 238.627C1826.71 232.229 1815.71 231.25 1815.71 237.363C1815.71 241.382 1802.99 241.29 1795.19 237.226C1786.81 232.866 1786.31 229.679 1793.98 229.679C1804.98 229.679 1806.23 225.979 1806.23 193.205V163.277H1812.04C1815.81 163.277 1817.38 162.537 1816.53 161.159C1815.82 159.998 1816.35 158.359 1817.72 157.517C1820.89 155.547 1817.06 150.413 1810.58 147.943C1803.18 145.131 1805.32 140.873 1814.85 139.45C1828.56 137.39 1823.91 134.032 1805.13 132.392C1795.82 131.584 1787.14 130.548 1785.83 130.082C1781.76 128.636 1783.24 125.323 1787.96 125.323C1790.44 125.323 1795.78 124.162 1799.82 122.728C1804.95 120.929 1822.08 119.813 1856.23 119.062C1958.38 116.808 1899.72 115.818 1674.22 116L1440.99 116.193L1423.92 122.284ZM1801.22 156.629C1802.07 158.814 1800.81 159.475 1795.85 159.475C1789.51 159.475 1786.16 157.414 1788.58 155.001C1790.93 152.633 1800.14 153.828 1801.22 156.629ZM1890.39 186.386C1888.35 189.574 1884.25 201.219 1885.16 201.219C1886.45 201.219 1893.76 185.669 1892.87 184.781C1892.38 184.291 1891.27 185.02 1890.39 186.386ZM1880.27 207.799C1879.01 209.325 1878.29 211.556 1878.69 212.751C1879.09 213.946 1880.43 212.694 1881.67 209.973C1884.21 204.418 1883.72 203.644 1880.27 207.799ZM1147.86 366.285C1147.86 369.826 1148.37 370.338 1150.13 368.562C1151.91 366.786 1151.91 365.784 1150.13 364.008C1148.37 362.233 1147.86 362.745 1147.86 366.285ZM1187.77 456.741C1187.85 459.018 1192.61 464.949 1194.35 464.949C1195.16 464.949 1196.96 466.44 1198.34 468.262C1200.75 471.427 1200.87 471.427 1200.93 468.262C1200.96 466.44 1200.34 464.949 1199.54 464.949C1198.74 464.949 1197.25 463.025 1196.22 460.692C1194.43 456.628 1187.63 453.463 1187.77 456.741ZM1187.7 465.985C1187.7 466.566 1188.95 469.446 1190.48 472.383C1192 475.331 1192.71 478.28 1192.06 478.94C1191.4 479.589 1191.89 480.124 1193.14 480.124C1197.05 480.124 1197.62 474.944 1194.27 469.844C1191.39 465.439 1187.7 463.276 1187.7 465.985ZM1215.4 502.596C1214.74 503.654 1215.12 505.1 1216.26 505.794C1219.18 507.604 1221.06 505.134 1218.62 502.698C1217.26 501.332 1216.19 501.298 1215.4 502.596ZM1219.96 510.746C1219.96 511.93 1218.46 514.07 1216.64 515.493C1213.47 517.952 1213.47 518.191 1216.64 520.65C1218.46 522.073 1219.96 524.202 1219.96 525.397C1219.96 526.581 1221.14 527.56 1222.57 527.56C1224.02 527.56 1226.47 529.473 1228.06 531.829C1232.35 538.216 1234.2 534.379 1230.55 526.672C1228.51 522.369 1226.04 519.967 1223.66 519.967C1221.62 519.967 1219.96 519.114 1219.96 518.066C1219.96 517.03 1220.82 516.176 1221.85 516.176C1222.9 516.176 1223.75 514.469 1223.75 512.374C1223.75 510.291 1222.9 508.583 1221.85 508.583C1220.82 508.583 1219.96 509.551 1219.96 510.746ZM1233.24 539.832C1233.24 541.494 1231.96 543.35 1230.39 543.942C1228.83 544.545 1227.54 546.275 1227.54 547.789C1227.54 549.304 1228.35 550.043 1229.34 549.44C1231.14 548.324 1230.79 552.514 1228.63 557.944C1227.87 559.822 1231.11 564.399 1237.95 571.161C1243.71 576.852 1248.42 580.78 1248.42 579.915C1248.42 579.038 1249.62 579.323 1251.1 580.541C1253.15 582.237 1254.1 582.237 1255.16 580.518C1255.94 579.266 1255.18 577.524 1253.43 576.545C1251.71 575.589 1250.31 573.164 1250.31 571.161C1250.31 569.157 1248.6 564.478 1246.52 560.756C1244.44 557.045 1242.73 552.411 1242.73 550.465C1242.73 548.529 1241.44 546.446 1239.88 545.843C1238.31 545.24 1237.04 543.498 1237.04 541.961C1237.04 540.424 1236.18 538.637 1235.14 537.988C1234.09 537.35 1233.24 538.182 1233.24 539.832ZM1255.32 590.297C1254.67 593.53 1253.31 595.579 1252.24 594.93C1251.18 594.27 1250.31 594.645 1250.31 595.75C1250.31 596.854 1251.6 597.753 1253.16 597.753C1254.73 597.753 1256 598.607 1256 599.654C1256 602.136 1254.85 602.045 1250.34 599.233C1247.52 597.469 1246.09 597.434 1244.42 599.096C1241.66 601.863 1243.57 607.247 1247.32 607.247C1251.88 607.247 1259.81 615.854 1259.74 620.737C1259.68 625.2 1259.64 625.211 1256.7 621.477C1253.81 617.789 1253.76 617.812 1255.09 622.422C1257.03 629.036 1257.86 629.537 1260.66 625.723C1262.69 622.934 1263.46 622.809 1265.25 624.972C1266.91 626.964 1266.36 628.672 1262.88 632.428C1259.65 635.912 1258.94 637.881 1260.41 639.35C1263.42 642.344 1255.54 642.025 1252.35 639.02C1250.35 637.13 1249.66 637.13 1248.97 639.02C1248.49 640.329 1245.83 641.513 1243.04 641.649C1238.67 641.866 1238.87 642.082 1244.62 643.289L1251.27 644.689L1245.31 644.939C1237.4 645.269 1228.11 649.96 1232.23 651.542C1233.85 652.168 1235.07 653.341 1234.93 654.149C1233.96 660.034 1235.46 660.364 1262.27 660.364C1296.12 660.364 1301.63 656.3 1288.29 641.183C1285.18 637.642 1282.62 633.783 1282.6 632.599C1282.59 631.427 1280.66 629.958 1278.34 629.343C1274.98 628.467 1274.58 627.75 1276.44 625.894C1280.06 622.285 1279.2 618.631 1274.75 618.631C1271.38 618.631 1271.11 618.164 1273.08 615.785C1274.72 613.816 1274.79 612.939 1273.32 612.939C1272.15 612.939 1271.19 610.48 1271.19 607.475C1271.19 604.47 1269.9 600.952 1268.34 599.654C1266.77 598.357 1265.5 596.205 1265.5 594.884C1265.5 593.553 1264.21 591.982 1262.65 591.378C1261.08 590.775 1259.81 588.976 1259.81 587.383C1259.81 582.18 1256.52 584.32 1255.32 590.297ZM1199.56 652.396C1194.19 653.204 1194.1 655.8 1199.32 658.6C1203.34 660.74 1212.37 657.962 1212.37 654.581C1212.37 652.828 1205.04 651.576 1199.56 652.396Z" fill="#8258F9"/>
<path fill-rule="evenodd" clip-rule="evenodd" d="M3308.49 4.79262C3305.67 7.43368 3302.69 9.61938 3301.86 9.65353C3299.41 9.75599 3291.82 16.6774 3291.82 18.8061C3291.82 21.2651 3267.58 45.6379 3265.14 45.6379C3264.15 45.6379 3263.36 46.4575 3263.36 47.4479C3263.36 49.8044 3244.74 68.4056 3242.39 68.4056C3241.4 68.4056 3240.59 69.3277 3240.59 70.4433C3240.59 72.9136 3235.82 77.8998 3233.45 77.8998C3232.51 77.8998 3230.65 79.9375 3229.31 82.4305C3227.97 84.9236 3224.84 88.0541 3222.35 89.3861C3219.86 90.7293 3217.82 92.5849 3217.82 93.5298C3217.82 95.8977 3212.83 100.667 3210.36 100.667C3209.25 100.667 3208.33 101.635 3208.33 102.819C3208.33 105.084 3198.9 113.941 3196.48 113.941C3195.69 113.941 3195.05 114.863 3195.05 115.979C3195.05 118.608 3190.23 123.435 3187.6 123.435C3186.48 123.435 3185.56 124.346 3185.56 125.462C3185.56 127.932 3180.8 132.918 3178.43 132.918C3177.49 132.918 3175.61 134.978 3174.27 137.506C3172.91 140.021 3170.21 142.503 3168.27 143.015C3166.31 143.528 3164.11 145.52 3163.38 147.444C3162.05 150.961 3158.11 155.686 3156.52 155.686C3154.9 155.686 3140.02 171.304 3140.02 172.989C3140.02 173.9 3138.9 174.663 3137.52 174.663C3134.63 174.663 3105.04 203.293 3103.33 207.744C3102.71 209.372 3101.19 210.704 3099.95 210.704C3098.72 210.704 3092.71 215.827 3086.6 222.088C3080.5 228.349 3074.65 233.472 3073.61 233.472C3072.57 233.472 3071.72 234.394 3071.72 235.509C3071.72 238.139 3066.89 242.966 3064.28 242.966C3063.15 242.966 3062.24 243.751 3062.24 244.719C3062.24 245.686 3055.92 252.836 3048.2 260.611C3034.24 274.658 3034.15 274.715 3031.75 270.23C3030.43 267.76 3028.58 265.733 3027.63 265.733C3025.26 265.733 3020.49 260.747 3020.49 258.277C3020.49 257.161 3019.31 256.239 3017.86 256.239C3016.41 256.239 3012.84 253.257 3009.93 249.603C3007.01 245.948 3003.09 242.966 3001.19 242.966C2999.28 242.966 2997.73 242.044 2997.73 240.928C2997.73 238.72 2993.06 233.472 2991.09 233.472C2989.51 233.472 2984.45 228.417 2984.45 226.835C2984.45 224.865 2979.2 220.198 2977 220.198C2975.88 220.198 2974.96 219.276 2974.96 218.16C2974.96 215.952 2970.29 210.704 2968.32 210.704C2966.5 210.704 2961.68 205.536 2961.68 203.578C2961.68 202.633 2959.54 200.72 2956.94 199.32C2954.33 197.931 2952.19 196.019 2952.19 195.074C2952.19 193.116 2947.37 187.936 2945.55 187.936C2943.58 187.936 2938.92 182.7 2938.92 180.491C2938.92 179.364 2937.99 178.453 2936.88 178.453C2934.67 178.453 2929.42 173.786 2929.42 171.817C2929.42 169.984 2924.25 165.168 2922.3 165.168C2921.35 165.168 2919.44 163.04 2918.04 160.433C2916.65 157.826 2914.74 155.686 2913.79 155.686C2911.42 155.686 2906.65 150.7 2906.65 148.229C2906.65 147.114 2905.99 146.203 2905.17 146.203C2902.92 146.203 2883.89 127.579 2883.89 125.37C2883.89 124.3 2882.98 123.435 2881.86 123.435C2879.57 123.435 2874.4 118.734 2874.4 116.662C2874.4 114.431 2867.99 110.275 2864.44 110.207C2862.62 110.173 2861.12 109.296 2861.12 108.249C2861.12 107.008 2824.12 106.359 2753.93 106.359C2683.72 106.359 2646.73 107.008 2646.73 108.249C2646.73 109.296 2645.44 110.15 2643.88 110.15C2639 110.15 2640.36 120.498 2645.78 124.562C2648.39 126.52 2650.52 129.059 2650.52 130.197C2650.52 131.347 2652.66 133.419 2655.26 134.819C2657.87 136.208 2660.01 138.12 2660.01 139.065C2660.01 141.433 2664.99 146.203 2667.46 146.203C2668.58 146.203 2669.49 146.84 2669.49 147.626C2669.51 150.051 2678.35 159.477 2680.63 159.477C2681.81 159.477 2682.78 160.399 2682.78 161.514C2682.78 163.985 2687.54 168.971 2689.91 168.971C2690.85 168.971 2692.76 171.099 2694.16 173.706C2695.55 176.325 2697.46 178.453 2698.41 178.453C2700.37 178.453 2705.55 183.269 2705.55 185.09C2705.55 187.06 2710.78 191.738 2712.99 191.738C2714.12 191.738 2715.03 192.649 2715.03 193.765C2715.03 196.394 2719.86 201.221 2722.49 201.221C2723.6 201.221 2724.51 201.859 2724.52 202.644C2724.52 205.069 2733.38 214.506 2735.65 214.506C2736.83 214.506 2737.8 215.417 2737.8 216.532C2737.8 219.162 2742.62 223.989 2745.25 223.989C2746.37 223.989 2747.28 224.956 2747.28 226.14C2747.28 228.406 2756.72 237.262 2759.14 237.262C2759.93 237.274 2760.57 238.185 2760.57 239.3C2760.57 241.93 2765.39 246.757 2768.02 246.757C2769.14 246.757 2770.05 247.644 2770.05 248.737C2770.05 249.83 2772.19 253.018 2774.8 255.829C2777.4 258.641 2779.54 262.022 2779.54 263.343C2779.54 264.652 2780.56 265.733 2781.8 265.733C2783.05 265.733 2787.19 268.932 2791.02 272.848C2794.84 276.753 2801.9 283.378 2806.72 287.545C2811.52 291.723 2815.48 295.81 2815.52 296.618C2815.56 297.438 2823.7 306.226 2833.62 316.153C2843.52 326.079 2851.64 335.027 2851.64 336.017C2851.64 337.008 2852.91 337.827 2854.48 337.827C2856.04 337.827 2857.33 338.784 2857.33 339.945C2857.33 342.392 2875.93 360.595 2878.43 360.595C2879.34 360.595 2880.1 361.506 2880.1 362.633C2880.1 365.251 2884.92 370.078 2887.55 370.078C2888.67 370.078 2889.58 370.806 2889.58 371.683C2889.58 374.062 2908.02 392.846 2910.34 392.846C2911.45 392.846 2912.35 394.508 2912.35 396.534C2912.35 400.234 2344.85 969.632 2341.16 969.632C2340.17 969.632 2339.36 970.485 2339.36 971.533C2339.36 976.223 2324.02 988.722 2318.91 988.187C2314.56 987.743 2313.66 988.461 2313.16 992.729C2312.84 995.53 2311.35 998.831 2309.84 1000.08C2308.34 1001.32 2307.11 1003.43 2307.11 1004.76C2307.11 1008.18 2302.3 1009.6 2299.67 1006.97C2297.99 1005.3 2297.04 1005.45 2295.67 1007.6C2292.55 1012.54 2293.68 1017.08 2298.57 1019.31C2301.18 1020.49 2303.31 1023.03 2303.31 1024.96C2303.31 1027.19 2304.69 1028.45 2307.11 1028.45C2309.2 1028.45 2310.9 1027.61 2310.9 1026.59C2310.9 1025.39 2348.45 1024.47 2414.78 1024.02C2471.92 1023.64 2522.07 1022.66 2526.25 1021.83C2533.39 1020.43 2557.56 998.934 2557.56 993.982C2557.56 993.117 2558.47 992.399 2559.58 992.399C2562.21 992.399 2567.04 987.573 2567.04 984.943C2567.04 983.827 2568.01 982.917 2569.19 982.917C2571.5 982.917 2589.81 963.974 2589.81 961.583C2589.81 960.798 2590.71 960.149 2591.81 960.149C2594.14 960.149 2612.57 941.354 2612.57 938.975C2612.57 938.098 2613.38 937.381 2614.39 937.381C2616.74 937.381 2644.83 909.286 2644.83 906.929C2644.83 905.939 2645.75 905.119 2646.86 905.119C2649.33 905.119 2654.32 900.361 2654.32 897.993C2654.32 897.048 2656.36 895.181 2658.85 893.849C2661.34 892.517 2664.47 889.387 2665.81 886.894C2667.15 884.401 2669 882.352 2669.95 882.352C2672.32 882.352 2677.09 877.377 2677.09 874.907C2677.09 873.78 2677.74 872.869 2678.52 872.869C2680.91 872.869 2699.85 854.564 2699.85 852.253C2699.85 851.069 2700.7 850.101 2701.73 850.101C2704.1 850.101 2745.39 808.675 2745.39 806.307C2745.39 805.351 2746.3 804.566 2747.42 804.566C2750.05 804.566 2754.87 799.739 2754.87 797.109C2754.87 795.994 2755.67 795.083 2756.65 795.083C2759.02 795.083 2823.18 731.003 2823.18 728.635C2823.18 727.611 2824.03 726.78 2825.09 726.78C2826.14 726.78 2872.65 681.119 2928.44 625.315C2992.48 561.27 3030.86 524.215 3032.51 524.853C3033.96 525.411 3036.26 527.949 3037.63 530.511C3038.99 533.061 3041.06 535.144 3042.21 535.144C3043.37 535.144 3045.58 536.908 3047.12 539.06C3048.65 541.211 3052.68 544.297 3056.07 545.913C3059.46 547.541 3062.24 549.897 3062.24 551.172C3062.24 552.436 3064.38 554.622 3066.98 556.022C3069.59 557.411 3071.72 559.687 3071.72 561.076C3071.72 562.477 3072.49 563.604 3073.44 563.604C3074.37 563.604 3083.62 571.937 3093.96 582.102C3104.31 592.279 3116.04 603.162 3120 606.293C3123.97 609.424 3135.63 620.318 3145.92 630.484C3156.2 640.661 3165.49 648.982 3166.55 648.982C3167.62 648.982 3168.48 649.905 3168.48 651.02C3168.48 653.229 3173.16 658.477 3175.13 658.477C3177.1 658.477 3181.77 663.713 3181.77 665.922C3181.77 667.049 3182.61 667.959 3183.65 667.959C3185.37 667.959 3191.68 672.763 3198.01 678.865C3199.37 680.174 3201.38 681.244 3202.5 681.244C3203.63 681.244 3204.54 682.155 3204.54 683.271C3204.54 685.741 3209.31 690.727 3211.67 690.727C3212.61 690.727 3214.52 692.867 3215.92 695.474C3217.32 698.081 3219.23 700.21 3220.17 700.21C3222.53 700.21 3227.3 705.196 3227.3 707.666C3227.3 708.782 3228.02 709.704 3228.89 709.704C3229.76 709.704 3234.37 713.54 3239.13 718.242C3243.9 722.932 3248.59 726.78 3249.56 726.78C3250.53 726.78 3252.47 728.909 3253.86 731.515C3255.26 734.134 3257.56 736.263 3258.97 736.263C3260.4 736.263 3262.37 738.403 3263.36 741.01C3264.35 743.617 3266.29 745.745 3267.69 745.745C3269.08 745.745 3277.63 753.008 3286.68 761.876C3301.64 776.527 3303.81 778.007 3310.53 778.007C3321.23 778.007 3321.54 776.937 3322.95 735.261C3323.66 714.36 3325.03 691.729 3326.01 684.978C3329.17 663.144 3328.37 564.491 3325.01 561.714C3323.45 560.416 3322.17 558.538 3322.17 557.547C3322.17 555.407 3320.37 553.643 3308.21 543.864C3303.14 539.788 3294.86 532.321 3289.8 527.266C3284.75 522.212 3279.71 518.068 3278.62 518.068C3277.53 518.068 3276.63 517.157 3276.63 516.042C3276.63 513.571 3271.87 508.585 3269.5 508.585C3268.56 508.585 3266.65 506.457 3265.25 503.838C3263.86 501.231 3261.69 499.103 3260.46 499.103C3259.22 499.103 3255.91 496.962 3253.1 494.356C3250.28 491.749 3247.53 489.608 3247 489.608C3245.59 489.608 3240.59 484.429 3240.59 482.972C3240.59 481.15 3235.41 476.335 3233.45 476.335C3232.51 476.335 3230.59 474.195 3229.2 471.588C3227.8 468.981 3225.95 466.841 3225.08 466.841C3224.22 466.841 3218.39 461.718 3212.13 455.457C3205.87 449.196 3199.88 444.073 3198.83 444.073C3197.77 444.073 3191.01 438.096 3183.79 430.799C3176.58 423.491 3169.76 417.514 3168.63 417.514C3167.5 417.514 3166.59 416.592 3166.59 415.454C3166.59 414.327 3163.59 410.491 3159.92 406.927L3153.25 400.45L3176.98 376.726C3190.03 363.68 3201.56 353.002 3202.62 353.002C3203.67 353.002 3204.54 352.171 3204.54 351.135C3204.54 348.699 3232.48 320.752 3234.92 320.752C3235.96 320.752 3236.79 319.864 3236.79 318.771C3236.79 316.198 3245.52 307.467 3248.09 307.467C3249.18 307.467 3250.07 306.556 3250.07 305.44C3250.07 303.073 3254.77 298.018 3257.05 297.916C3259.86 297.802 3266.3 291.472 3270.02 285.177C3272.02 281.785 3274.65 279.007 3275.87 279.007C3277.08 279.007 3286 271.3 3295.68 261.863C3305.35 252.437 3314.21 244.104 3315.35 243.364C3321.95 239.072 3322.17 235.145 3322.17 122.035L3322.15 10.5415L3317.9 5.27074L3313.63 0L3308.49 4.79262ZM3312.76 19.5575C3313.74 25.6592 3314.63 220.289 3313.71 225.309C3312.27 233.028 3312.57 232.72 3220.48 321.697C3139.62 399.835 3147.1 391.787 3147.1 400.735C3147.1 406.871 3148.14 409.546 3151.62 412.312C3157.55 417.036 3170.08 428.352 3186.51 443.868C3193.82 450.767 3209.19 464.951 3220.67 475.379C3232.14 485.818 3248.23 500.97 3256.4 509.063C3264.57 517.146 3271.89 523.76 3272.65 523.76C3276.3 523.76 3318.19 566.973 3319.99 572.597C3321.38 576.945 3321.17 593.179 3319.28 628.093C3317.82 655.244 3316.04 695.588 3315.32 717.764C3313.37 779.191 3318.53 778.622 3259.9 723.934C3248.71 713.495 3231.49 697.694 3221.65 688.826C3211.8 679.958 3197.73 667.003 3190.39 660.048C3183.03 653.081 3173.71 644.543 3169.67 641.071C3165.61 637.599 3154.09 626.681 3144.05 616.8C3134.01 606.93 3115.98 589.923 3103.98 579.017C3091.97 568.111 3072.18 549.567 3059.97 537.808C3035.75 514.459 3031.47 511.363 3026.99 513.867C3023.75 515.677 2535.4 1003.5 2529.76 1010.56C2525.94 1015.33 2482.07 1018.58 2440.87 1017.14C2426.39 1016.64 2380.47 1016.53 2361.19 1016.97C2341.48 1017.4 2320.31 1015.84 2318.26 1013.79C2315.6 1011.15 2287.5 1039.69 2669.49 657.19C2859.55 466.875 2923.73 401.509 2923.73 398.253C2923.73 395.361 2918.94 389.078 2909.51 379.618C2865.09 335.05 2752.97 221.564 2752.97 221.177C2752.97 219.606 2686.88 153.785 2685.3 153.785C2684.23 153.785 2682.59 152.123 2681.64 150.085C2680.7 148.047 2674.16 140.465 2667.13 133.225C2652.73 118.426 2652.19 117.106 2659.53 114.328C2668.59 110.902 2851.32 112.393 2857.83 115.956C2862.8 118.677 2932.2 185.671 2997.67 250.957C3024.53 277.743 3028.38 280.908 3034.09 280.908C3041 280.908 3045.46 276.696 3187.92 135.764C3286.36 38.3636 3311.95 14.5486 3312.76 19.5575ZM2546.17 28.5621C2546.17 30.6795 2544.91 32.3643 2543.33 32.3643C2541.76 32.3643 2540.48 33.0246 2540.48 33.8442C2540.48 35.9047 2521.96 55.132 2519.97 55.132C2519.08 55.132 2517.21 57.2608 2515.81 59.8677C2514.41 62.486 2512.5 64.6148 2511.57 64.6148C2509.35 64.6148 2504.43 69.5326 2504.43 71.7525C2504.43 72.6859 2502.3 74.5984 2499.68 75.9987C2497.07 77.3989 2494.95 79.3114 2494.95 80.2448C2494.95 82.2142 2490.13 87.3825 2488.3 87.3825C2486.48 87.3825 2481.66 92.5508 2481.66 94.5202C2481.66 95.4537 2479.53 97.3662 2476.91 98.7664C2474.31 100.167 2472.18 102.079 2472.18 103.013C2472.18 105.232 2467.26 110.15 2465.04 110.15C2464.1 110.15 2462.18 112.29 2460.79 114.897C2459.39 117.504 2457.48 119.633 2456.54 119.633C2454.33 119.633 2449.41 124.551 2449.41 126.771C2449.41 127.716 2447.36 129.571 2444.87 130.914C2442.38 132.246 2439.24 135.377 2437.91 137.87C2436.58 140.363 2434.71 142.401 2433.77 142.401C2431.56 142.401 2426.64 147.319 2426.64 149.538C2426.64 150.483 2424.5 152.396 2421.9 153.785C2419.29 155.185 2417.15 157.097 2417.15 158.042C2417.15 160 2412.33 165.168 2410.51 165.168C2408.54 165.168 2403.87 170.416 2403.87 172.625C2403.87 173.74 2402.95 174.663 2401.84 174.663C2399.63 174.663 2394.38 179.33 2394.38 181.299C2394.38 182.882 2389.33 187.936 2387.74 187.936C2385.77 187.936 2381.11 193.184 2381.11 195.393C2381.11 196.508 2380.19 197.43 2379.07 197.43C2376.44 197.43 2371.61 202.257 2371.61 204.875C2371.61 206.002 2370.72 206.913 2369.63 206.913C2368.54 206.913 2365.59 208.837 2363.09 211.182C2360.57 213.527 2357.41 216.475 2356.05 217.728C2351.65 221.815 2348.85 225.685 2348.85 227.7C2348.85 228.793 2347.88 229.681 2346.69 229.681C2344.43 229.681 2335.57 239.118 2335.57 241.543C2335.57 242.317 2334.65 242.966 2333.53 242.966C2331.02 242.966 2326.08 247.747 2326.08 250.194C2326.08 251.196 2324.31 252.471 2322.15 253.04C2319.98 253.598 2317.79 255.682 2317.27 257.674C2316.75 259.654 2313.95 262.683 2311.05 264.39C2304.05 268.534 2293.83 279.109 2293.83 282.217C2293.83 283.583 2292.62 284.699 2291.14 284.699C2289.66 284.699 2275.03 297.938 2258.64 314.115C2242.24 330.28 2228.07 343.519 2227.17 343.519C2226.26 343.519 2225.52 344.476 2225.52 345.637C2225.52 347.925 2211.66 362.496 2209.48 362.496C2207.59 362.496 2202.76 367.619 2202.76 369.623C2202.76 370.567 2200.72 372.434 2198.23 373.766C2195.73 375.098 2192.59 378.229 2191.26 380.722C2189.93 383.215 2188.06 385.264 2187.13 385.264C2184.76 385.264 2179.99 390.239 2179.99 392.709C2179.99 393.836 2179.1 394.747 2178.02 394.747C2175.87 394.747 2157.37 413.781 2157.28 416.091C2157.24 416.877 2155.93 417.514 2154.37 417.514C2151.87 417.514 2151.53 399.255 2151.53 264.515C2151.53 121.033 2151.32 111.357 2148.2 109C2145.56 106.985 2127.55 106.462 2059.84 106.416C1970.22 106.348 1969.39 106.428 1969.39 114.761C1969.39 116.4 1968.36 117.743 1967.11 117.743C1965.33 117.743 1965.33 118.244 1967.11 120.02C1968.86 121.773 1969.39 203.407 1969.39 475.936V829.576L1973.47 832.877C1977.55 836.179 1986.41 834.574 1986.45 830.521C1986.47 828.335 1991.49 823.543 1993.76 823.543C1994.78 823.543 1995.93 822.643 1996.3 821.539C1997.4 818.215 2053.58 759.03 2055.63 759.03C2057.84 759.03 2064.25 752.325 2064.25 750.014C2064.25 748.648 2065.69 746.975 2067.45 746.303C2071.63 744.698 2255.88 560.473 2255.88 557.889C2255.88 556.807 2258.01 555.111 2260.62 554.121C2263.24 553.13 2265.37 551.446 2265.37 550.375C2265.37 549.305 2266.64 548.429 2268.21 548.429C2269.77 548.429 2271.06 549.34 2271.06 550.467C2271.06 553.085 2275.89 557.912 2278.52 557.912C2279.63 557.912 2280.54 558.765 2280.54 559.801C2280.54 561.509 2285.35 567.827 2291.46 574.156C2292.76 575.511 2293.83 577.15 2293.83 577.799C2293.83 578.448 2301.94 587.02 2311.85 596.856C2321.76 606.691 2329.88 615.582 2329.88 616.618C2329.88 617.665 2334.15 622.913 2339.36 628.298C2344.58 633.683 2348.85 638.464 2348.85 638.93C2348.85 640.456 2354.24 645.192 2355.98 645.192C2356.93 645.192 2358.87 647.537 2360.33 650.405C2363.42 656.519 2366.83 660.104 2373.92 664.658C2381.41 669.462 2602.69 669.758 2612.28 664.977C2619.49 661.38 2620.01 656.245 2613.52 652.785C2610.91 651.384 2608.78 649.472 2608.78 648.527C2608.78 646.159 2603.8 641.401 2601.33 641.401C2600.21 641.401 2599.29 640.479 2599.29 639.363C2599.29 637.155 2594.62 631.907 2592.65 631.907C2591.07 631.907 2586.02 626.852 2586.02 625.27C2586.02 623.3 2580.77 618.633 2578.56 618.633C2577.44 618.633 2576.52 617.711 2576.52 616.595C2576.52 614.125 2571.76 609.139 2569.4 609.139C2568.45 609.139 2566.58 607.101 2565.25 604.608C2563.92 602.115 2560.79 598.985 2558.3 597.653C2555.8 596.309 2553.75 594.454 2553.75 593.509C2553.75 591.289 2548.84 586.371 2546.63 586.371C2545.68 586.371 2543.77 584.242 2542.37 581.636C2540.98 579.029 2539.19 576.888 2538.41 576.888C2536.55 576.888 2508.22 548.554 2508.22 546.698C2508.22 545.913 2506.18 544.183 2503.69 542.851C2501.2 541.519 2498.06 538.377 2496.73 535.884C2495.39 533.391 2493.53 531.353 2492.59 531.353C2490.37 531.353 2485.45 526.435 2485.45 524.215C2485.45 523.282 2483.32 521.369 2480.72 519.969C2478.11 518.569 2475.97 516.656 2475.97 515.723C2475.97 513.902 2471.21 508.585 2469.58 508.585C2467.95 508.585 2439.92 479.613 2439.92 477.917C2439.92 477.041 2439.11 476.335 2438.12 476.335C2435.9 476.335 2403.87 444.13 2403.87 441.899C2403.87 441.011 2402.74 440.282 2401.35 440.282C2399.96 440.282 2397.68 438.153 2396.28 435.535C2394.88 432.928 2392.6 430.799 2391.22 430.799C2385.55 430.799 2393.29 420.77 2406.79 410.627C2409.36 408.703 2411.46 406.051 2411.46 404.73C2411.46 403.41 2412.38 402.34 2413.49 402.34C2415.96 402.34 2420.95 397.57 2420.95 395.202C2420.95 394.257 2423.08 392.345 2425.69 390.956C2428.3 389.556 2430.43 387.643 2430.43 386.698C2430.43 384.74 2435.25 379.572 2437.07 379.572C2439.04 379.572 2443.72 374.324 2443.72 372.116C2443.72 371 2444.63 370.078 2445.74 370.078C2448.37 370.078 2453.2 365.251 2453.2 362.633C2453.2 361.506 2454.09 360.595 2455.18 360.595C2457.75 360.595 2466.49 351.875 2466.49 349.302C2466.49 348.209 2467.4 347.31 2468.51 347.31C2471.14 347.31 2475.97 342.483 2475.97 339.865C2475.97 338.738 2476.86 337.827 2477.95 337.827C2480.52 337.827 2489.25 329.107 2489.25 326.535C2489.25 325.442 2490.16 324.542 2491.28 324.542C2493.91 324.542 2498.74 319.716 2498.74 317.097C2498.74 315.97 2499.81 315.048 2501.1 315.048C2502.41 315.037 2506.63 312.043 2510.47 308.4C2514.31 304.757 2517.84 301.775 2518.31 301.775C2520.83 301.775 2557.32 263.787 2560.04 258.323C2564.66 249.033 2565 28.5621 2560.4 28.5621C2558.83 28.5621 2557.56 27.7083 2557.56 26.6724C2557.56 25.6251 2555 24.7713 2551.86 24.7713C2547.44 24.7713 2546.17 25.6137 2546.17 28.5621ZM979.469 34.8915C977.113 36.0868 975.201 38.1473 975.201 39.4792C975.201 42.2341 971.592 48.9961 968.086 52.8211C966.776 54.2327 965.706 56.6233 965.706 58.1146C965.706 59.6059 964.853 60.824 963.817 60.824C962.769 60.824 961.915 61.9737 961.915 63.3739C961.915 66.6411 956.542 77.4786 954.209 78.9243C953.23 79.5277 952.433 81.6792 952.433 83.7055C952.433 85.7205 951.579 87.3825 950.532 87.3825C949.484 87.3825 948.63 89.5227 948.63 92.1296C948.63 95.078 947.56 96.8653 945.784 96.8653C944.02 96.8653 942.938 98.6639 942.938 101.612C942.938 104.219 942.085 106.359 941.049 106.359C940.002 106.359 939.148 107.896 939.148 109.775C939.148 111.653 938.396 113.998 937.486 114.988C934.287 118.46 925.863 134.978 925.863 137.79C925.863 139.35 924.588 141.114 923.017 141.718C921.457 142.321 920.171 143.892 920.171 145.224C920.171 146.556 917.188 152.601 913.534 158.668C909.88 164.724 906.897 170.815 906.897 172.181C906.897 173.547 906.043 174.663 904.996 174.663C903.949 174.663 903.095 176.7 903.095 179.205C903.095 181.698 901.82 184.236 900.249 184.828C898.689 185.432 897.403 187.196 897.403 188.767C897.403 191.579 888.99 208.097 885.792 211.558C884.87 212.548 884.13 214.905 884.13 216.783C884.13 218.661 883.276 220.198 882.228 220.198C881.181 220.198 880.327 222.236 880.327 224.74C880.327 227.233 879.052 229.772 877.481 230.364C875.922 230.967 874.635 233.198 874.635 235.316C874.635 237.433 873.782 239.164 872.746 239.164C871.698 239.164 870.845 240.826 870.845 242.852C870.845 244.878 870.048 247.03 869.069 247.633C866.735 249.067 861.362 259.916 861.362 263.172C861.362 264.584 860.519 265.733 859.495 265.733C858.47 265.733 857.104 267.862 856.444 270.469C855.795 273.087 854.497 275.216 853.564 275.216C852.63 275.216 851.868 277.356 851.868 279.963C851.868 282.57 851.014 284.699 849.978 284.699C848.931 284.699 848.077 286.441 848.077 288.558C848.077 290.676 846.802 292.907 845.231 293.499C843.66 294.102 842.385 296.163 842.385 298.075C842.385 299.987 841.531 302.082 840.484 302.731C839.448 303.368 838.594 305.554 838.594 307.581C838.594 309.607 837.752 311.269 836.727 311.269C835.703 311.269 834.337 313.398 833.676 316.005C833.027 318.623 831.73 320.752 830.796 320.752C829.863 320.752 829.1 322.892 829.1 325.499C829.1 328.106 828.246 330.234 827.21 330.234C826.163 330.234 825.309 332.375 825.309 334.981C825.309 337.93 824.239 339.729 822.463 339.729C820.881 339.729 819.617 341.413 819.617 343.519C819.617 345.603 818.763 347.31 817.716 347.31C816.68 347.31 815.826 348.915 815.826 350.873C815.826 352.831 814.54 355.507 812.98 356.804C811.409 358.102 810.134 360.766 810.134 362.724C810.134 364.682 809.281 366.287 808.233 366.287C807.186 366.287 806.332 367.562 806.332 369.133C806.332 370.693 805.479 371.979 804.443 371.979C803.395 371.979 802.541 373.345 802.541 375.007C802.541 378.354 796.724 389.635 794.482 390.637C793.696 390.979 793.059 392.857 793.059 394.792C793.059 396.728 792.25 398.811 791.283 399.414C788.949 400.86 783.565 411.697 783.565 414.964C783.565 416.365 782.734 417.514 781.709 417.514C780.684 417.514 779.307 419.655 778.658 422.262C777.998 424.868 776.7 426.997 775.778 426.997C774.845 426.997 774.082 429.137 774.082 431.744C774.082 434.351 773.228 436.491 772.181 436.491C771.145 436.491 770.291 438.085 770.291 440.055C770.291 442.013 769.005 444.676 767.445 445.974C765.874 447.272 764.599 449.514 764.599 450.949C764.599 452.383 763.745 453.567 762.698 453.567C761.651 453.567 760.797 455.605 760.797 458.109C760.797 460.602 759.522 463.141 757.951 463.733C756.391 464.336 755.105 466.568 755.105 468.685C755.105 470.802 754.251 472.533 753.215 472.533C752.168 472.533 751.314 474.195 751.314 476.221C751.314 478.247 750.46 480.433 749.413 481.071C748.377 481.719 747.523 483.814 747.523 485.727C747.523 487.639 746.237 489.699 744.677 490.303C743.106 490.895 741.831 493.126 741.831 495.243C741.831 497.361 740.978 499.103 739.93 499.103C738.883 499.103 738.029 501.14 738.029 503.645C738.029 506.138 736.754 508.676 735.183 509.268C733.624 509.872 732.337 512.103 732.337 514.22C732.337 516.338 731.7 518.079 730.914 518.091C729.275 518.102 724.756 527.243 724.756 530.545C724.756 531.774 723.469 533.846 721.91 535.144C720.339 536.442 719.064 539.117 719.064 541.075C719.064 543.033 718.301 544.638 717.379 544.638C716.457 544.638 715.205 546.129 714.59 547.951C713.975 549.784 712.7 552.55 711.744 554.121C710.788 555.68 708.852 559.528 707.429 562.659C706.006 565.789 704.344 568.772 703.741 569.295C701.453 571.265 696.296 583.309 696.296 586.667C696.296 588.591 695.442 590.173 694.395 590.173C693.348 590.173 692.494 591.448 692.494 593.019C692.494 594.579 691.811 595.865 690.968 595.865C689.283 595.865 683.011 609.082 683.011 612.622C683.011 613.841 682.373 614.842 681.588 614.842C679.676 614.865 673.528 625.828 673.528 629.22C673.528 630.7 672.674 631.907 671.627 631.907C670.58 631.907 669.726 634.047 669.726 636.654C669.726 639.261 668.895 641.401 667.87 641.401C666.846 641.401 665.468 643.53 664.82 646.137C664.159 648.755 662.862 650.884 661.939 650.884C661.006 650.884 660.243 652.307 660.243 654.06C660.243 655.801 658.82 658.807 657.079 660.731C654.096 664.009 654.153 664.465 657.944 667.994C661.86 671.636 664.831 671.75 755.503 671.693C851.321 671.636 855.67 671.318 855.67 664.43C855.67 663.235 856.455 662.267 857.423 662.267C859.449 662.267 865.153 651.555 865.153 647.742C865.153 646.341 865.995 645.192 867.008 645.192C868.033 645.192 869.41 643.063 870.071 640.445C870.719 637.838 872.017 635.709 872.951 635.709C873.873 635.709 874.635 633.569 874.635 630.962C874.635 628.355 875.489 626.215 876.537 626.215C877.584 626.215 878.438 624.086 878.438 621.479C878.438 618.519 879.508 616.732 881.284 616.732C882.866 616.732 884.13 615.047 884.13 612.941C884.13 610.847 884.983 609.139 886.019 609.139C887.067 609.139 887.92 607.101 887.92 604.597C887.92 602.104 889.195 599.565 890.766 598.973C892.326 598.37 893.612 596.139 893.612 594.021C893.612 591.904 894.466 590.173 895.513 590.173C896.549 590.173 897.403 588.033 897.403 585.426C897.403 582.819 898.166 580.679 899.099 580.679C900.033 580.679 901.331 578.551 901.979 575.944C902.64 573.325 904.006 571.197 905.03 571.197C906.055 571.197 906.897 569.535 906.897 567.52C906.897 565.493 907.751 563.308 908.787 562.659C909.834 562.01 910.688 559.915 910.688 558.003C910.688 556.09 911.963 554.03 913.534 553.438C915.094 552.834 916.38 550.603 916.38 548.486C916.38 546.368 917.234 544.638 918.281 544.638C919.317 544.638 920.171 542.589 920.171 540.096C920.171 537.591 921.457 535.064 923.017 534.461C924.588 533.858 925.863 531.638 925.863 529.52C925.863 527.391 926.717 525.661 927.764 525.661C928.811 525.661 929.665 524.113 929.665 522.223C929.665 520.333 931.202 517.135 933.08 515.108C937.19 510.691 942.938 499.524 942.938 495.961C942.938 494.56 943.633 493.411 944.475 493.411C946.149 493.411 952.433 480.183 952.433 476.642C952.433 475.424 953.286 474.434 954.322 474.434C955.37 474.434 956.224 472.726 956.224 470.643C956.224 468.548 956.918 466.841 957.76 466.841C959.434 466.841 965.706 453.624 965.706 450.084C965.706 448.866 966.446 447.875 967.346 447.875C968.256 447.875 970.522 443.811 972.389 438.859C974.267 433.907 976.316 429.422 976.954 428.898C977.58 428.375 979.8 424.333 981.871 419.905C986.061 410.946 987.654 410.035 989.43 415.613C990.091 417.708 991.422 419.416 992.401 419.416C993.369 419.416 994.166 421.852 994.166 424.823C994.166 427.976 996.158 432.382 998.913 435.364C1001.52 438.176 1003.64 441.5 1003.63 442.753C1003.59 445.633 1013.61 465.68 1015.51 466.533C1016.3 466.875 1016.93 468.799 1016.93 470.802C1016.93 472.794 1017.7 474.434 1018.63 474.434C1019.56 474.434 1020.86 476.574 1021.51 479.181C1022.17 481.788 1023.54 483.917 1024.56 483.917C1025.59 483.917 1026.43 485.579 1026.43 487.605C1026.43 489.631 1027.28 491.817 1028.32 492.454C1029.36 493.103 1030.22 495.312 1030.22 497.372C1030.22 499.433 1031.49 501.607 1033.06 502.21C1034.62 502.802 1035.91 504.863 1035.91 506.775C1035.91 508.688 1036.76 510.782 1037.81 511.431C1046.87 517.032 1039.47 518.068 990.341 518.068H940.981L937.827 524.682C935.277 530.044 935.107 532.104 936.951 535.588C938.59 538.707 938.681 541.712 937.269 546.528C934.401 556.272 934.879 663.451 937.805 668.13C940.867 673.037 1312.91 673.925 1312.91 669.018C1312.91 667.515 1312.06 665.762 1311.02 665.113C1309.98 664.465 1309.12 661.482 1309.12 658.477C1309.12 655.46 1308.27 652.477 1307.22 651.828C1306.19 651.191 1305.33 649.108 1305.33 647.207C1305.33 645.317 1304.05 642.699 1302.49 641.401C1300.92 640.103 1299.64 636.973 1299.64 634.445C1299.64 631.918 1298.07 628.173 1296.16 626.112C1294.24 624.063 1289.8 616.63 1286.3 609.594C1282.79 602.559 1279.23 596.526 1278.4 596.173C1277.56 595.831 1276.87 594.465 1276.87 593.145C1276.87 590.64 1271.33 578.528 1269.43 576.888C1266.9 574.703 1263.59 567.178 1263.59 563.638C1263.59 561.532 1262.73 559.813 1261.69 559.813C1260.65 559.813 1259.8 558.082 1259.8 555.954C1259.8 553.836 1258.51 551.616 1256.95 551.013C1255.38 550.41 1254.04 548.52 1253.96 546.801C1253.89 545.093 1252.19 541.12 1250.19 537.99C1248.19 534.859 1246.06 531.023 1245.44 529.452C1244.84 527.892 1243.54 525.126 1242.58 523.316C1241.62 521.506 1240.82 518.728 1240.82 517.146C1240.82 515.575 1239.97 514.277 1238.92 514.277C1237.88 514.277 1237.03 513.059 1237.03 511.568C1237.03 510.077 1235.9 507.732 1234.51 506.343C1233.14 504.965 1230.46 499.786 1228.57 494.834C1226.67 489.87 1224.39 485.818 1223.48 485.818C1222.58 485.818 1221.84 483.689 1221.84 481.071C1221.84 478.464 1221.19 476.335 1220.4 476.335C1219.6 476.335 1218.11 474.707 1217.08 472.715C1212.5 463.892 1208.68 455.821 1205.53 448.342C1203.67 443.914 1201.45 440.282 1200.61 440.282C1199.77 440.282 1199.08 438.7 1199.08 436.765C1199.08 434.829 1196.95 430.947 1194.34 428.124C1191.73 425.312 1189.59 421.51 1189.59 419.689C1189.59 416.353 1180.51 396.523 1178.16 394.747C1177.47 394.223 1175.39 389.738 1173.51 384.786C1171.64 379.834 1169.36 375.77 1168.46 375.77C1167.56 375.77 1166.82 374.597 1166.82 373.163C1166.82 370.089 1157.81 353.526 1155.29 351.966C1154.33 351.374 1153.54 348.369 1153.54 345.307C1153.54 342.233 1152.87 339.729 1152.05 339.729C1151.23 339.729 1148.04 334.811 1144.98 328.811C1141.92 322.812 1137.47 314.718 1135.1 310.825C1132.72 306.932 1130.72 302.241 1130.64 300.397C1130.56 298.542 1128.85 294.478 1126.82 291.347C1124.8 288.217 1122.62 284.153 1122 282.331C1121.36 280.51 1120.09 279.007 1119.17 279.007C1118.25 279.007 1117.5 277.368 1117.5 275.353C1117.5 273.338 1116.21 270.412 1114.65 268.841C1113.08 267.282 1111.81 265.085 1111.81 263.969C1111.81 262.853 1110.95 261.931 1109.91 261.931C1108.86 261.931 1108 260.292 1108 258.3C1108 254.179 1102.12 242.988 1099.94 242.977C1099.16 242.966 1098.52 241.213 1098.52 239.072C1098.52 234.2 1093.35 223.989 1090.88 223.989C1089.87 223.989 1089.04 222.327 1089.04 220.312C1089.04 218.286 1088.19 216.1 1087.14 215.451C1086.09 214.802 1085.24 212.616 1085.24 210.59C1085.24 208.575 1084.47 206.913 1083.55 206.913C1082.62 206.913 1081.32 204.784 1080.67 202.166C1080.01 199.559 1078.63 197.43 1077.61 197.43C1076.6 197.43 1075.75 195.29 1075.75 192.683C1075.75 190.076 1074.9 187.936 1073.85 187.936C1072.82 187.936 1071.96 186.206 1071.96 184.088C1071.96 181.971 1070.68 179.74 1069.12 179.136C1067.55 178.544 1066.27 176.484 1066.27 174.572C1066.27 172.659 1065.42 170.564 1064.37 169.915C1063.32 169.267 1062.47 167.081 1062.47 165.055C1062.47 163.04 1061.64 161.378 1060.61 161.378C1059.59 161.378 1058.21 159.249 1057.56 156.631C1056.9 154.024 1055.6 151.895 1054.68 151.895C1053.75 151.895 1052.99 150.256 1052.99 148.252C1052.99 144.142 1047.1 132.952 1044.93 132.929C1044.14 132.918 1043.5 131.256 1043.5 129.241C1043.5 127.215 1042.65 125.029 1041.6 124.38C1040.56 123.731 1039.7 121.637 1039.7 119.724C1039.7 117.812 1038.43 115.751 1036.86 115.159C1035.3 114.556 1034.01 112.325 1034.01 110.207C1034.01 108.09 1033.16 106.359 1032.12 106.359C1031.07 106.359 1030.22 105.358 1030.22 104.151C1030.22 100.611 1023.95 87.3825 1022.26 87.3825C1021.42 87.3825 1020.74 86.0848 1020.74 84.5138C1020.74 81.8614 1018.87 77.4786 1014.69 70.3067C1013.78 68.7357 1012.53 65.9695 1011.91 64.1367C1011.31 62.3153 1010.05 60.824 1009.12 60.824C1008.2 60.824 1007.45 58.6838 1007.45 56.0769C1007.45 53.47 1006.6 51.3298 1005.55 51.3298C1004.51 51.3298 1003.66 50.1118 1003.66 48.6205C1003.66 47.1292 1002.46 44.7272 1001.02 43.2701C999.562 41.8243 998.059 38.9783 997.684 36.9748C996.853 32.6375 986.311 31.4308 979.469 34.8915ZM2554.87 48.4839C2555.53 51.0908 2555.47 54.7222 2554.76 56.5436C2554.04 58.3764 2553.55 101.874 2553.67 153.204C2553.86 229.795 2553.41 247.667 2551.22 252.813C2549.63 256.513 2529.27 277.755 2501.54 304.621C2475.7 329.665 2442.51 361.847 2427.79 376.123C2413.07 390.409 2396.96 406.028 2392.01 410.832C2383.94 418.664 2383 420.452 2383 427.965V436.355L2492.1 545.196C2598.42 651.282 2608.36 662.279 2595.57 659.717C2592.48 659.103 2589.51 659.308 2588.98 660.184C2587.91 661.903 2407.53 661.061 2390.59 659.239C2379.17 658.021 2370.09 650.303 2345.01 620.523C2339.31 613.738 2330.14 603.8 2324.67 598.438C2319.18 593.076 2314.69 587.863 2314.69 586.861C2314.69 585.859 2312.35 582.535 2309.48 579.484C2306.61 576.422 2297.56 566.506 2289.36 557.445C2272.73 539.06 2269.35 537.136 2262.03 541.929C2259.27 543.75 2206.16 595.877 2144.03 657.759C1984.53 816.621 1985.22 815.95 1981.89 815.95C1979.28 815.95 1978.87 812.421 1978.86 789.858C1978.69 374.563 1979.13 121.17 1980.03 118.813C1981.28 115.558 2132.71 114.192 2137.75 117.402C2139.6 118.563 2140.14 151.679 2140.24 269.308C2140.37 438.882 2140.11 436.036 2155.48 428.693C2159.85 426.599 2279.51 308.56 2366.27 220.722C2374.3 212.605 2411.01 176.37 2447.86 140.192C2554.55 35.4493 2552.13 37.5326 2554.87 48.4839ZM993.221 55.132C995.099 59.2985 997.251 62.7137 997.98 62.7137C998.719 62.7137 1002.97 71.0467 1007.43 81.2125C1011.89 91.3896 1017 101.851 1018.8 104.458C1020.59 107.065 1024.81 114.749 1028.17 121.534C1031.54 128.319 1035.07 135.149 1036.01 136.709C1036.97 138.28 1041.14 146.818 1045.29 155.686C1049.45 164.554 1054.1 173.945 1055.64 176.552C1057.18 179.171 1059.63 183.861 1061.09 186.991C1062.56 190.122 1068.53 202.075 1074.34 213.55C1080.16 225.036 1086.23 237.41 1087.82 241.065C1089.43 244.719 1091.99 249.842 1093.52 252.448C1096.09 256.786 1102.88 270.287 1115.02 295.138C1117.57 300.352 1121.23 307.615 1123.18 311.269C1125.11 314.912 1130.18 325.157 1134.43 334.037C1138.67 342.905 1143.02 351.443 1144.08 353.002C1145.14 354.573 1148.99 362.257 1152.62 370.078C1156.26 377.91 1160.67 386.869 1162.41 390C1164.15 393.13 1177.64 419.598 1192.37 448.82C1207.1 478.042 1220.14 503.656 1221.34 505.739C1222.54 507.823 1231.55 525.786 1241.37 545.64C1251.18 565.493 1261.9 586.576 1265.19 592.496C1268.48 598.404 1271.18 604.187 1271.18 605.325C1271.18 606.475 1276.3 616.8 1282.56 628.264C1294.26 649.688 1295.61 654.151 1291.67 658.09C1287.15 662.609 949.234 661.243 946.809 656.701C943.849 651.18 944.145 532.81 947.116 529.839C948.767 528.188 962.621 527.562 997.524 527.562C1054.93 527.562 1062.34 524.785 1049.28 508.175C1047.24 505.591 1040.76 493.729 1034.87 481.833C993.585 398.321 994.2 399.3 984.945 402.533C976.919 405.334 977.454 404.4 937.691 482.972C936.108 486.102 929.699 498.476 923.449 510.486C913.454 529.702 895.274 565.243 860.155 634.229C854.463 645.431 848.498 655.881 846.904 657.475C843.933 660.446 685.891 662.085 678.423 659.217C673.767 657.429 674.792 652.079 682.84 636.164C686.927 628.082 692.118 617.631 694.383 612.941C696.638 608.24 699.244 603.117 700.155 601.557C701.077 599.986 707.919 586.758 715.364 572.141C722.82 557.536 730.22 543.021 731.836 539.891C733.441 536.76 736.026 531.638 737.585 528.507C739.145 525.377 742.298 519.4 744.598 515.222C746.897 511.056 749.937 504.647 751.348 500.992C752.771 497.338 755.811 491.794 758.099 488.664C760.398 485.533 764.155 478.703 766.443 473.489C768.731 468.264 773.262 458.872 776.507 452.611C779.751 446.35 786.126 433.543 790.668 424.151C795.21 414.76 799.707 405.8 800.663 404.229C801.619 402.67 810.852 384.74 821.188 364.386C872.108 264.174 928.071 155.276 939.649 133.863C941.334 130.732 944.316 124.756 946.274 120.589C951.568 109.251 963.794 84.935 965.831 81.6906C966.81 80.1196 968.461 76.8866 969.497 74.4846C982.418 44.5109 986.823 40.925 993.221 55.132ZM3.77027 109.706C-0.566978 114.59 -1.52322 740.179 2.81403 744.516C4.385 746.087 5.67137 748.409 5.67137 749.673C5.67137 752.53 25.2288 750.629 26.2192 747.681C26.5721 746.622 28.4391 745.745 30.3857 745.745C32.321 745.745 34.4384 744.892 35.0759 743.856C35.7248 742.808 37.9332 741.954 39.9937 741.954C42.0542 741.954 44.2285 740.68 44.8318 739.109C45.4238 737.538 47.9624 736.263 50.4555 736.263C52.9599 736.263 54.9976 735.409 54.9976 734.361C54.9976 733.326 56.7394 732.472 58.8568 732.472C60.9742 732.472 63.2054 731.185 63.7973 729.626C64.4007 728.055 66.0969 726.78 67.5654 726.78C69.0339 726.78 71.7091 725.994 73.5305 725.038C75.3406 724.082 79.9852 721.93 83.8557 720.245C87.7262 718.561 91.4032 716.352 92.0293 715.339C92.6554 714.326 94.6932 713.495 96.5601 713.495C101.023 713.495 111.917 708.008 111.917 705.765C111.917 704.797 113.636 704.012 115.742 704.012C117.848 704.012 121.047 703.249 122.857 702.316C124.667 701.394 129.562 699.049 133.74 697.102C137.918 695.167 141.617 692.936 141.959 692.15C142.312 691.365 143.678 690.727 144.987 690.727C148.129 690.727 158.966 685.297 160.378 683.02C160.981 682.041 163.133 681.244 165.159 681.244C167.186 681.244 168.836 680.391 168.836 679.343C168.836 678.296 171.341 677.442 174.403 677.442C187.824 677.442 187.813 677.499 187.813 575.648V484.873L313.992 484.133L440.159 483.393V569.443C440.159 644.543 440.546 656.53 443.256 663.622L446.363 671.75H531.185C610.963 671.75 616.199 671.545 619.159 668.289C623.621 663.349 624.043 113.52 619.591 109.069C615.072 104.561 449.278 105.084 443.973 109.627C440.25 112.814 440.159 115.068 440.159 203.805V294.728L313.992 293.988L187.813 293.237V202.382C187.813 118.073 187.574 111.334 184.489 109C178.854 104.709 7.61802 105.38 3.77027 109.706ZM1437.19 108.249C1436.54 109.296 1433.13 110.15 1429.6 110.15C1426.07 110.15 1422.65 111.004 1422.02 112.051C1421.37 113.087 1418.43 113.941 1415.49 113.941C1412.56 113.941 1409.08 115.227 1407.79 116.787C1406.49 118.358 1403.39 119.633 1400.91 119.633C1398.43 119.633 1396.4 120.487 1396.4 121.534C1396.4 122.581 1394.66 123.435 1392.54 123.435C1390.43 123.435 1388.2 124.71 1387.6 126.281C1387 127.841 1384.89 129.127 1382.91 129.127C1380.94 129.127 1379.33 129.981 1379.33 131.017C1379.33 132.064 1378.04 132.918 1376.48 132.918C1374.91 132.918 1373.64 133.772 1373.64 134.819C1373.64 135.855 1372.04 136.709 1370.11 136.709C1368.16 136.709 1364.97 138.849 1363.01 141.456C1361.06 144.063 1358.4 146.203 1357.13 146.203C1354.06 146.203 1331.89 168.971 1331.89 172.135C1331.89 172.648 1329.11 175.846 1325.72 179.228C1318.69 186.251 1314.82 192.33 1314.82 196.36C1314.82 197.886 1313.75 199.821 1312.45 200.652C1308.77 202.997 1305.33 210.157 1305.33 215.428C1305.33 218.399 1304.26 220.198 1302.49 220.198C1300.71 220.198 1299.64 221.985 1299.64 224.934C1299.64 227.552 1298.88 229.681 1297.94 229.681C1293.03 229.681 1289.28 520.925 1294.07 531.308C1295.29 533.937 1297.03 537.58 1297.96 539.39C1298.88 541.2 1299.64 543.978 1299.64 545.56C1299.64 547.131 1300.92 548.429 1302.49 548.429C1304.25 548.429 1305.33 550.216 1305.33 553.176C1305.33 555.783 1306.19 557.912 1307.22 557.912C1308.27 557.912 1309.12 559.653 1309.12 561.771C1309.12 563.888 1310.4 566.119 1311.97 566.711C1313.53 567.315 1314.82 569.421 1314.82 571.401C1314.82 573.371 1315.67 574.987 1316.72 574.987C1317.75 574.987 1318.61 576.274 1318.61 577.833C1318.61 579.404 1319.4 580.679 1320.38 580.679C1321.35 580.679 1322.75 582.603 1323.5 584.948C1324.24 587.305 1326.43 590.606 1328.37 592.291C1330.31 593.976 1331.89 596.321 1331.89 597.505C1331.89 598.689 1332.8 599.656 1333.93 599.656C1336.49 599.656 1341.37 604.46 1341.37 606.976C1341.37 609.606 1356.76 625.27 1360.83 626.773C1362.65 627.444 1364.14 628.879 1364.14 629.949C1364.14 631.03 1365.05 631.907 1366.17 631.907C1367.28 631.907 1371.02 634.901 1374.46 638.555C1377.9 642.198 1382.12 645.192 1383.81 645.192C1385.52 645.192 1386.91 646.045 1386.91 647.093C1386.91 648.129 1388.2 648.982 1389.76 648.982C1391.33 648.982 1392.6 650.269 1392.6 651.828C1392.6 653.604 1394.4 654.674 1397.35 654.674C1399.95 654.674 1402.1 655.528 1402.1 656.576C1402.1 657.623 1403.28 658.477 1404.71 658.477C1406.16 658.477 1408.74 660.605 1410.45 663.212C1413 667.106 1415.1 667.959 1422.06 667.959C1426.73 667.959 1430.55 668.677 1430.55 669.565C1430.55 673.583 1662.41 671.056 1664.66 667.015C1665.81 664.92 1667.21 662.791 1667.76 662.267C1670.54 659.615 1675.31 650.656 1675.31 648.106C1675.31 646.501 1676.07 645.192 1676.99 645.192C1677.93 645.192 1679.22 643.063 1679.87 640.445C1680.53 637.838 1681.91 635.709 1682.94 635.709C1683.95 635.709 1684.79 633.569 1684.79 630.962C1684.79 628.355 1685.64 626.215 1686.69 626.215C1687.73 626.215 1688.58 624.507 1688.58 622.424C1688.58 620.341 1689.41 618.633 1690.44 618.633C1691.45 618.633 1694.01 614.842 1696.12 610.209C1698.23 605.576 1700.66 601.352 1701.52 600.817C1702.39 600.282 1704.23 596.389 1705.63 592.166C1707.02 587.931 1708.88 584.482 1709.76 584.482C1710.63 584.482 1711.35 582.341 1711.35 579.734C1711.35 577.128 1712 574.987 1712.77 574.976C1714.68 574.965 1720.84 563.991 1720.84 560.61C1720.84 559.13 1721.67 557.912 1722.7 557.912C1723.72 557.912 1725.1 555.783 1725.75 553.176C1726.41 550.569 1727.71 548.429 1728.63 548.429C1729.56 548.429 1730.35 546.938 1730.38 545.105C1730.42 543.283 1731.67 540.164 1733.17 538.183C1734.67 536.214 1735.51 533.949 1735.02 533.174C1734.54 532.389 1735.41 531.262 1736.97 530.659C1738.53 530.067 1739.81 527.835 1739.81 525.718C1739.81 523.601 1740.66 521.87 1741.71 521.87C1742.76 521.87 1743.61 520.584 1743.61 519.024C1743.61 517.453 1744.27 516.178 1745.07 516.178C1747.63 516.178 1752.75 504.146 1753.69 495.949C1754.92 485.191 1764.4 485.875 1613.03 485.84C1499.95 485.818 1479.2 485.408 1476.9 483.108C1472.45 478.657 1472.9 291.415 1477.38 286.942C1480.22 284.084 1489.8 283.629 1569.87 282.547C1618.99 281.887 1660.45 281.284 1662.02 281.215C1663.58 281.147 1707.03 281.557 1758.58 282.115C1810.12 282.673 1852.81 282.411 1853.44 281.546C1854.08 280.669 1856.31 279.018 1858.39 277.869C1860.48 276.719 1862.47 273.725 1862.82 271.232C1863.18 268.727 1864.25 265.87 1865.19 264.88C1866.15 263.889 1866.93 261.92 1866.93 260.52C1866.93 259.108 1869.07 255.977 1871.68 253.564C1874.79 250.673 1876.42 247.132 1876.42 243.216C1876.42 239.949 1877.26 237.274 1878.28 237.274C1879.31 237.274 1880.67 235.134 1881.33 232.527C1881.98 229.92 1883.28 227.78 1884.21 227.78C1885.15 227.78 1885.91 226.482 1885.91 224.9C1885.91 223.317 1888.04 218.638 1890.64 214.506C1893.26 210.374 1895.39 205.695 1895.39 204.101C1895.39 202.519 1896.25 201.221 1897.29 201.221C1898.33 201.221 1899.18 199.183 1899.18 196.679C1899.18 194.186 1900.47 191.647 1902.03 191.044C1903.6 190.452 1904.87 188.221 1904.87 186.103C1904.87 183.986 1905.52 182.244 1906.31 182.244C1907.11 182.244 1908.76 179.899 1909.99 177.03C1911.22 174.162 1913.75 168.185 1915.63 163.745C1917.51 159.317 1919.71 155.686 1920.5 155.686C1921.3 155.686 1921.95 154.024 1921.95 151.986C1921.95 149.96 1924.09 145.987 1926.7 143.175C1929.3 140.363 1931.44 136.47 1931.44 134.534C1931.44 132.599 1932.3 131.017 1933.33 131.017C1934.38 131.017 1935.24 129.844 1935.24 128.41C1935.24 126.964 1936.51 124.733 1938.08 123.435C1941.94 120.225 1941.68 112.085 1937.6 109C1933.41 105.813 1439.15 105.073 1437.19 108.249ZM175.701 118.574C176.27 120.066 176.885 160.444 177.067 208.302C177.351 288.08 177.659 295.73 180.744 300.443L184.102 305.577H315.028H445.942L448.264 300.352C449.972 296.527 450.701 271.676 451.008 207.061C451.338 137.995 451.953 118.643 453.854 117.436C457.508 115.125 602.834 115.444 607.194 117.777C611.998 120.35 613.137 654.265 608.344 658.249C606.455 659.809 584.472 660.275 529.113 659.922L452.488 659.422L451.998 570.377C451.554 490.838 451.167 480.968 448.378 477.883C443.87 472.908 184.216 472.476 180.095 477.439C178.125 479.807 177.488 499.797 177.044 571.823C176.429 672.308 177.158 666.4 165.045 669.234C159.684 670.487 119.533 690.055 116.755 692.765C115.765 693.732 113.841 694.518 112.475 694.518C110.243 694.518 100.362 699.026 50.2619 722.898C25.8436 734.532 17.2829 738.164 14.232 738.164C9.46219 738.164 9.91755 120.669 14.6874 117.891C20.4249 114.544 174.403 115.193 175.701 118.574ZM1924.89 118.244C1927.06 123.913 1851.01 270.139 1845.03 271.79C1841.94 272.643 1758.16 273.281 1658.85 273.201C1462.57 273.065 1470.36 272.655 1464.29 283.299C1460.01 290.789 1460.84 479.682 1465.17 486.307C1471.87 496.518 1467.58 496.188 1606.8 497.201C1750.2 498.249 1743.85 497.645 1737.48 509.724C1734.03 516.247 1725.56 532.025 1717.69 546.528C1706.33 567.508 1687.52 603.083 1675.4 626.556C1668.56 639.784 1661.06 652.807 1658.71 655.494L1654.46 660.366H1541.35H1428.26L1413.59 652.124C1405.52 647.582 1393.98 640.115 1387.93 635.527C1381.89 630.928 1374.65 625.463 1371.84 623.369C1350.15 607.295 1321.22 565.983 1304.52 527.266C1300.06 516.941 1300.03 271.129 1304.48 249.045C1311.65 213.482 1341.75 168.697 1371.96 148.639C1376.34 145.736 1382.14 141.888 1384.85 140.101C1393.32 134.489 1406.23 128.603 1423.91 122.285L1440.98 116.195L1682.47 116.002C1876.76 115.854 1924.15 116.286 1924.89 118.244Z" fill="#625B9E"/>
</svg>
